<?xml version="1.0" encoding="UTF-8"?>
<!-- Generator: visioncortex VTracer 0.6.4 -->
<svg version="1.1" xmlns="http://www.w3.org/2000/svg" width="640" height="640">
<path d="M0 0 C211.2 0 422.4 0 640 0 C640 211.2 640 422.4 640 640 C428.8 640 217.6 640 0 640 C0 428.8 0 217.6 0 0 Z " fill="#FEFEFE" transform="translate(0,0)"/>
<path d="M0 0 C3.63 0 7.26 0 11 0 C11 1.65 11 3.3 11 5 C12.01 4.97 13.03 4.93 14.07 4.89 C15.42 4.87 16.77 4.84 18.12 4.81 C18.79 4.79 19.46 4.76 20.14 4.74 C20.8 4.73 21.46 4.72 22.13 4.71 C23.41 4.8 24.69 4.9 26 5 C27.09 5.42 28.18 5.83 29.3 6.26 C30.19 6.84 31.08 7.41 32 8 C32.81 8.89 32.81 8.89 33.64 9.79 C34.09 10.52 34.54 11.25 35 12 C35.13 12.79 35.26 13.58 35.39 14.39 C35.39 15.26 35.39 16.13 35.4 17.03 C35.4 18.46 35.4 18.46 35.41 19.93 C35.4 20.92 35.39 21.91 35.38 22.94 C35.39 23.93 35.4 24.92 35.41 25.94 C35.41 26.89 35.4 27.85 35.4 28.84 C35.36 29.75 35.32 30.66 35.28 31.6 C35.14 32.79 35.14 32.79 35 34 C34.6 35.01 34.2 36.02 33.79 37.07 C33.2 37.7 32.61 38.34 32 39 C31.28 39.43 30.57 39.86 29.83 40.3 C28.43 40.65 28.43 40.65 27 41 C25.68 41.06 24.37 41.13 23.01 41.2 C21.57 41.18 20.13 41.16 18.69 41.12 C17.95 41.12 17.21 41.11 16.44 41.1 C14.63 41.07 12.81 41.04 11 41 C11 42.65 11 44.3 11 46 C7.37 46 3.74 46 0 46 C0 44.35 0 42.7 0 41 C-1.09 41.05 -2.17 41.09 -3.29 41.14 C-4.73 41.18 -6.18 41.21 -7.62 41.25 C-8.34 41.28 -9.05 41.32 -9.79 41.35 C-10.49 41.36 -11.19 41.38 -11.91 41.39 C-12.61 41.36 -13.3 41.34 -14.01 41.31 C-14.67 41.21 -15.32 41.1 -16 41 C-17.68 40.19 -17.68 40.19 -19.4 39.36 C-20.26 38.58 -21.12 37.8 -22 37 C-22.45 36.09 -22.89 35.18 -23.36 34.25 C-23.57 33.17 -23.78 32.1 -24 31 C-24.1 29.73 -24.2 28.47 -24.3 27.16 C-24.32 25.79 -24.32 24.43 -24.31 23.06 C-24.33 22.39 -24.34 21.71 -24.36 21.01 C-24.36 20.34 -24.36 19.67 -24.36 18.97 C-24.24 17.66 -24.12 16.35 -24 15 C-23.62 13.74 -23.24 12.48 -22.86 11.18 C-22.24 10.13 -21.63 9.08 -21 8 C-20.11 7.36 -19.22 6.73 -18.3 6.07 C-17.21 5.72 -16.12 5.37 -15 5 C-13.09 4.85 -13.09 4.85 -11.13 4.71 C-10.15 4.72 -10.15 4.72 -9.14 4.74 C-8.48 4.76 -7.81 4.79 -7.12 4.81 C-6.44 4.83 -5.75 4.84 -5.04 4.85 C-3.36 4.89 -1.68 4.94 0 5 C0 3.35 0 1.7 0 0 Z " fill="#242424" transform="translate(215,295)"/>
<path d="M0 0 C1.09 -0.1 1.09 -0.1 2.2 -0.19 C3.02 -0.23 3.84 -0.26 4.69 -0.3 C6.46 -0.32 8.23 -0.32 10 -0.31 C11.33 -0.34 11.33 -0.34 12.7 -0.36 C13.99 -0.36 13.99 -0.36 15.31 -0.36 C16.54 -0.32 16.54 -0.32 17.8 -0.27 C18.53 -0.18 19.25 -0.09 20 0 C20.99 0.46 21.98 0.92 23 1.39 C23.66 1.92 24.32 2.45 25 3 C25.66 3.66 26.32 4.32 27 5 C27.2 5.62 27.4 6.23 27.61 6.87 C27.74 7.57 27.87 8.28 28 9 C28.05 9.66 28.11 10.33 28.16 11.01 C28.21 13.3 28.24 15.59 28.25 17.88 C28.27 18.67 28.29 19.46 28.31 20.27 C28.32 21.43 28.32 21.43 28.33 22.62 C28.3 23.37 28.27 24.12 28.24 24.89 C28.16 25.59 28.08 26.28 28 27 C27.62 28.12 27.25 29.23 26.86 30.38 C26.25 31.25 25.63 32.11 25 33 C24.14 33.61 23.27 34.22 22.38 34.86 C21.26 35.23 20.15 35.61 19 36 C18.31 36.08 17.62 36.17 16.91 36.26 C16.16 36.29 15.42 36.33 14.65 36.36 C13.88 36.36 13.11 36.36 12.32 36.36 C11.14 36.34 11.14 36.34 9.94 36.31 C9.15 36.32 8.36 36.32 7.54 36.32 C6.39 36.31 6.39 36.31 5.21 36.3 C4.48 36.27 3.74 36.23 2.99 36.19 C2.33 36.13 1.68 36.07 1 36 C0.07 35.77 -0.85 35.53 -1.81 35.29 C-2.53 34.87 -3.25 34.44 -4 34 C-5.13 33.04 -5.13 33.04 -6.29 32.06 C-6.85 31.05 -7.42 30.04 -8 29 C-8.12 28.21 -8.24 27.42 -8.36 26.61 C-8.4 25.71 -8.45 24.81 -8.5 23.88 C-8.5 22.92 -8.5 21.97 -8.5 20.98 C-8.48 20 -8.46 19.01 -8.44 18 C-8.44 17.02 -8.45 16.03 -8.46 15.02 C-8.45 14.06 -8.44 13.11 -8.43 12.12 C-8.36 10.77 -8.36 10.77 -8.29 9.39 C-8.2 8.6 -8.1 7.81 -8 7 C-7.6 5.99 -7.2 4.98 -6.79 3.94 C-6.2 3.3 -5.61 2.66 -5 2 C-4.32 1.57 -3.64 1.15 -2.94 0.71 C-1.97 0.47 -1 0.24 0 0 Z " fill="#232323" transform="translate(474,300)"/>
<path d="M0 0 C14.19 0 28.38 0 43 0 C43 2.97 43 5.94 43 9 C32.44 9 21.88 9 11 9 C11 10.65 11 12.3 11 14 C19.91 14 28.82 14 38 14 C38 16.64 38 19.28 38 22 C29.09 22 20.18 22 11 22 C11 23.65 11 25.3 11 27 C21.56 27 32.12 27 43 27 C43 29.97 43 32.94 43 36 C28.81 36 14.62 36 0 36 C0 24.12 0 12.24 0 0 Z " fill="#242424" transform="translate(143,300)"/>
<path d="M0 0 C5.04 -0.07 10.07 -0.13 15.11 -0.16 C16.82 -0.18 18.53 -0.2 20.24 -0.23 C22.71 -0.26 25.17 -0.28 27.64 -0.29 C28.78 -0.32 28.78 -0.32 29.94 -0.34 C30.67 -0.34 31.39 -0.34 32.13 -0.34 C34.04 -0.17 34.04 -0.17 36 0 C36.97 0.46 37.94 0.92 38.94 1.4 C39.62 1.93 40.3 2.46 41 3 C41.64 3.94 41.64 3.94 42.29 4.91 C42.52 5.6 42.76 6.29 43 7 C43.12 7.73 43.24 8.46 43.37 9.22 C43.39 9.97 43.41 10.72 43.44 11.5 C43.5 12.63 43.5 12.63 43.56 13.78 C43.37 14.51 43.19 15.25 43 16 C42.33 16.69 41.65 17.37 40.96 18.08 C39.98 18.71 39.01 19.35 38 20 C37.4 20.29 36.8 20.58 36.18 20.88 C35.54 21.15 34.89 21.42 34.23 21.7 C32.89 22.23 31.54 22.74 30.19 23.25 C27.82 24.16 25.44 25.06 23 26 C29.6 26.33 36.2 26.66 43 27 C43 29.97 43 32.94 43 36 C28.81 36 14.62 36 0 36 C0 31.71 0 27.42 0 23 C0.87 22.68 1.75 22.35 2.65 22.02 C5.88 20.82 9.11 19.62 12.34 18.41 C13.73 17.89 15.13 17.37 16.53 16.85 C18.55 16.11 20.55 15.36 22.56 14.6 C24.37 13.93 24.37 13.93 26.22 13.24 C27.14 12.83 28.06 12.42 29 12 C29.33 11.34 29.66 10.68 30 10 C15.15 9.5 15.15 9.5 0 9 C0 6.03 0 3.06 0 0 Z " fill="#242424" transform="translate(402,300)"/>
<path d="M0 0 C5.28 0 10.56 0 16 0 C16 4.29 16 8.58 16 13 C26.23 13 36.46 13 47 13 C47.06 15.54 47.12 18.07 47.19 20.69 C47.23 21.87 47.23 21.87 47.27 23.08 C47.28 23.72 47.29 24.36 47.29 25.01 C47.2 26.33 47.1 27.64 47 29 C46.58 29.96 46.17 30.91 45.74 31.89 C45.16 32.59 44.59 33.28 44 34 C43.47 34.37 42.94 34.74 42.39 35.12 C41.21 35.56 41.21 35.56 40 36 C38.18 36.11 38.18 36.11 36.33 36.23 C34.87 36.23 33.41 36.22 31.95 36.2 C30.8 36.19 30.8 36.19 29.62 36.19 C27.16 36.18 24.71 36.15 22.25 36.12 C20.58 36.11 18.91 36.11 17.25 36.1 C13.16 36.08 9.08 36.04 5 36 C5 27.09 5 18.18 5 9 C3.35 9 1.7 9 0 9 C0 6.03 0 3.06 0 0 Z " fill="#242424" transform="translate(298,300)"/>
<path d="M0 0 C0.99 0 1.98 0 3 0 C3 0.99 3 1.98 3 3 C3.83 2.97 4.66 2.93 5.52 2.89 C7.15 2.85 7.15 2.85 8.81 2.81 C9.89 2.78 10.97 2.74 12.08 2.71 C13.04 2.8 14.01 2.9 15 3 C15.93 3.62 15.93 3.62 16.88 4.25 C17.25 4.83 17.62 5.4 18 6 C18.1 6.67 18.19 7.35 18.29 8.04 C18.2 10.03 18.1 12.01 18 14 C18.66 14 19.32 14 20 14 C20.5 16.48 20.5 16.48 21 19 C21 14.05 21 9.1 21 4 C21.99 4 22.98 4 24 4 C24 9.28 24 14.56 24 20 C26.64 20 29.28 20 32 20 C31.91 17.75 31.8 15.5 31.69 13.25 C31.63 12 31.57 10.74 31.51 9.45 C31.26 7.74 31.26 7.74 31 6 C30.49 5.19 29.98 4.38 29.46 3.55 C28.98 3.04 28.5 2.53 28 2 C28.33 1.67 28.66 1.34 29 1 C30.18 0.98 31.35 0.96 32.56 0.94 C33.7 0.96 34.83 0.98 36 1 C36.5 2.49 36.5 2.49 37 4 C36.67 4.66 36.34 5.32 36 6 C36.66 6 37.32 6 38 6 C38.33 5.01 38.66 4.02 39 3 C39.5 4.98 39.5 4.98 40 7 C40.66 7 41.32 7 42 7 C41.5 5.02 41.5 5.02 41 3 C42.65 3 44.3 3 46 3 C46.03 6.15 46.05 9.29 46.06 12.44 C46.07 13.34 46.08 14.23 46.09 15.16 C46.09 16.01 46.09 16.87 46.1 17.75 C46.1 18.54 46.11 19.33 46.11 20.14 C46.08 20.76 46.04 21.37 46 22 C45.5 22.5 45.5 22.5 45 23 C43.71 23.09 42.43 23.19 41.11 23.28 C39.47 23.36 37.83 23.43 36.19 23.5 C34.56 23.57 32.92 23.64 31.29 23.72 C30.57 23.75 29.84 23.78 29.09 23.81 C28.4 23.87 27.71 23.94 27 24 C26.27 24.13 25.54 24.26 24.79 24.39 C24.2 24.59 23.61 24.79 23 25 C22.67 25.66 22.34 26.32 22 27 C21.5 26.01 21.5 26.01 21 25 C20.22 24.73 19.43 24.46 18.62 24.19 C17.76 24.13 16.89 24.06 16 24 C15.4 24.47 14.8 24.95 14.19 25.44 C13.8 25.95 13.4 26.47 13 27 C12.67 26.67 12.34 26.34 12 26 C10.58 25.93 10.58 25.93 9.13 25.87 C7.36 25.87 7.36 25.87 5.56 25.88 C4.39 25.87 3.21 25.87 2 25.87 C1.01 25.91 0.02 25.95 -1 26 C-1.66 26.33 -2.32 26.66 -3 27 C-3.33 26.34 -3.66 25.68 -4 25 C-4.99 24.67 -5.98 24.34 -7 24 C-7.66 23.67 -8.32 23.34 -9 23 C-9 23.66 -9 24.32 -9 25 C-9.66 25 -10.32 25 -11 25 C-11.33 25.66 -11.66 26.32 -12 27 C-13.33 27 -14.67 27 -16 27 C-16.33 23.7 -16.66 20.4 -17 17 C-16.34 17.66 -15.68 18.32 -15 19 C-14.91 17.39 -14.91 17.39 -14.82 15.75 C-14.73 14.36 -14.65 12.96 -14.56 11.56 C-14.52 10.86 -14.48 10.15 -14.44 9.42 C-14.4 8.75 -14.36 8.07 -14.32 7.38 C-14.21 6.26 -14.11 5.15 -14 4 C-13.67 3.67 -13.34 3.34 -13 3 C-12.17 2.97 -11.35 2.94 -10.5 2.9 C-8.98 2.92 -8.98 2.92 -7.44 2.94 C-6.43 2.95 -5.41 2.96 -4.37 2.96 C-3.2 2.98 -3.2 2.98 -2 3 C-2 2.34 -2 1.68 -2 1 C-1.34 0.67 -0.68 0.34 0 0 Z " fill="#EEEEEE" transform="translate(284,357)"/>
<path d="M0 0 C3.63 0 7.26 0 11 0 C11 4.62 11 9.24 11 14 C17.6 14 24.2 14 31 14 C31 9.38 31 4.76 31 0 C34.96 0 38.92 0 43 0 C43 11.88 43 23.76 43 36 C39.04 36 35.08 36 31 36 C31 31.38 31 26.76 31 22 C24.4 22 17.8 22 11 22 C11 26.62 11 31.24 11 36 C7.37 36 3.74 36 0 36 C0 24.12 0 12.24 0 0 Z " fill="#242424" transform="translate(93,300)"/>
<path d="M0 0 C4.29 0 8.58 0 13 0 C13.66 2.31 14.32 4.62 15 7 C15.33 6.67 15.66 6.34 16 6 C17.55 5.93 17.55 5.93 19.12 5.87 C20.4 5.87 21.68 5.87 23 5.88 C24.28 5.87 25.56 5.87 26.88 5.87 C27.91 5.91 28.94 5.95 30 6 C30.5 6.5 30.5 6.5 31 7 C31.02 7.85 31.04 8.69 31.06 9.56 C31.04 10.37 31.02 11.17 31 12 C31.99 12 32.98 12 34 12 C34 9.69 34 7.38 34 5 C34.99 5.33 35.98 5.66 37 6 C37.5 12.44 37.5 12.44 38 19 C38.81 17.72 38.81 17.72 39.64 16.41 C40.36 15.31 41.08 14.2 41.81 13.06 C42.52 11.96 43.23 10.86 43.96 9.72 C44.63 8.82 45.31 7.93 46 7 C46.99 6.67 47.98 6.34 49 6 C49 11.61 49 17.22 49 23 C48.67 23 48.34 23 48 23 C48 18.38 48 13.76 48 9 C47.34 9 46.68 9 46 9 C45.73 9.68 45.46 10.36 45.19 11.06 C44.6 12.52 44.6 12.52 44 14 C43.46 15.09 42.93 16.19 42.38 17.31 C41.92 18.53 41.47 19.75 41 21 C40.91 22.1 40.91 22.1 40.81 23.23 C40.81 24.32 40.81 24.32 40.81 25.44 C40.87 26.61 40.94 27.79 41 29 C40.5 28.01 40.5 28.01 40 27 C38.68 27 37.36 27 36 27 C35.67 27.66 35.34 28.32 35 29 C34.36 28.69 33.72 28.38 33.06 28.06 C32.04 27.54 32.04 27.54 31 27 C30.67 26.67 30.34 26.34 30 26 C30 26.66 30 27.32 30 28 C29.01 28.33 28.02 28.66 27 29 C26.67 28.67 26.34 28.34 26 28 C25.39 27.9 24.78 27.79 24.15 27.68 C23.42 27.6 22.69 27.52 21.94 27.44 C20.64 27.29 19.34 27.15 18 27 C17.84 27.58 17.67 28.15 17.5 28.75 C17.34 29.49 17.17 30.24 17 31 C17 32.32 17 33.64 17 35 C16.67 34.34 16.34 33.68 16 33 C15.34 33 14.68 33 14 33 C13.67 30.36 13.34 27.72 13 25 C7.72 25 2.44 25 -3 25 C-3 26.65 -3 28.3 -3 30 C-3.99 30 -4.98 30 -6 30 C-6 27.69 -6 25.38 -6 23 C-5.01 23 -4.02 23 -3 23 C-2.94 22.45 -2.89 21.89 -2.83 21.32 C-2.58 18.8 -2.32 16.27 -2.06 13.75 C-1.98 12.88 -1.89 12 -1.8 11.11 C-1.67 9.84 -1.67 9.84 -1.54 8.55 C-1.46 7.77 -1.38 7 -1.3 6.2 C-1.2 5.47 -1.1 4.75 -1 4 C-0.67 2.68 -0.34 1.36 0 0 Z " fill="#EEEEEE" transform="translate(113,355)"/>
<path d="M0 0 C14.19 0 28.38 0 43 0 C43 3.96 43 7.92 43 12 C41.61 13.96 41.61 13.96 40.18 15.95 C39.29 16.78 39.29 16.78 38.38 17.63 C37.74 18.16 37.1 18.7 36.44 19.25 C35.15 20.43 33.86 21.6 32.57 22.78 C31.95 23.33 31.34 23.88 30.7 24.45 C30.14 24.96 29.58 25.47 29 26 C28.2 26.86 27.4 27.71 26.58 28.59 C25.46 29.91 24.35 31.23 23.23 32.55 C22.83 33.03 22.42 33.51 22 34 C21.34 34.66 20.68 35.32 20 36 C19.07 36.11 19.07 36.11 18.12 36.23 C17.38 36.22 16.63 36.21 15.87 36.2 C15.06 36.19 14.26 36.18 13.43 36.18 C12.16 36.15 12.16 36.15 10.88 36.12 C9.6 36.11 9.6 36.11 8.3 36.1 C6.2 36.07 4.1 36.04 2 36 C2 35.34 2 34.68 2 34 C2.42 33.6 2.83 33.21 3.26 32.8 C3.87 32.31 4.49 31.82 5.12 31.31 C5.84 30.71 6.56 30.1 7.3 29.48 C8.19 28.66 9.08 27.84 10 27 C11.2 25.77 12.39 24.52 13.58 23.27 C16.61 20.03 19.62 16.77 22.61 13.49 C23.3 12.75 23.3 12.75 24 12 C24.66 11.34 25.32 10.68 26 10 C13.13 9.5 13.13 9.5 0 9 C0 6.03 0 3.06 0 0 Z " fill="#242424" transform="translate(506,300)"/>
<path d="M0 0 C14.19 0 28.38 0 43 0 C43 2.97 43 5.94 43 9 C37.72 9 32.44 9 27 9 C27 17.91 27 26.82 27 36 C23.37 36 19.74 36 16 36 C16 27.09 16 18.18 16 9 C10.72 9 5.44 9 0 9 C0 6.03 0 3.06 0 0 Z " fill="#242424" transform="translate(253,300)"/>
<path d="M0 0 C0.33 0 0.66 0 1 0 C1 1.65 1 3.3 1 5 C1.99 5.33 2.98 5.66 4 6 C3.34 6.33 2.68 6.66 2 7 C1.79 7.85 1.59 8.69 1.38 9.56 C1.19 10.77 1.19 10.77 1 12 C1.6 11.99 2.21 11.98 2.83 11.96 C4.03 11.95 4.03 11.95 5.25 11.94 C6.04 11.93 6.83 11.91 7.64 11.9 C8.42 11.93 9.2 11.97 10 12 C11.14 12.25 11.14 12.25 12.3 12.5 C13.14 12.75 13.14 12.75 14 13 C14.12 13.8 14.25 14.61 14.38 15.44 C14.58 16.28 14.79 17.13 15 18 C15.66 18.33 16.32 18.66 17 19 C17 20.32 17 21.64 17 23 C16.34 23 15.68 23 15 23 C15 23.66 15 24.32 15 25 C14.01 25.33 13.02 25.66 12 26 C11.35 26.04 10.7 26.09 10.02 26.13 C8.92 26.13 8.92 26.13 7.8 26.13 C7.01 26.13 6.21 26.14 5.39 26.14 C4.56 26.13 3.73 26.13 2.88 26.12 C1.62 26.13 1.62 26.13 0.34 26.14 C-0.46 26.14 -1.25 26.13 -2.07 26.13 C-3.37 26.09 -4.66 26.05 -6 26 C-6.33 25.67 -6.66 25.34 -7 25 C-7.06 24.13 -7.06 24.13 -7.11 23.23 C-7.11 22.49 -7.1 21.74 -7.1 20.96 C-7.09 20.16 -7.09 19.35 -7.09 18.51 C-7.08 17.66 -7.07 16.81 -7.06 15.94 C-7.06 15.08 -7.05 14.23 -7.05 13.35 C-7.04 11.23 -7.02 9.12 -7 7 C-9.97 7 -12.94 7 -16 7 C-15.99 7.65 -15.98 8.3 -15.96 8.98 C-15.95 10.78 -15.94 12.58 -15.94 14.38 C-15.96 15.24 -15.98 16.11 -16 17 C-16.12 18.18 -16.25 19.35 -16.38 20.56 C-16.68 21.77 -16.68 21.77 -17 23 C-17.66 23.33 -18.32 23.66 -19 24 C-20.21 24.04 -21.42 24.09 -22.66 24.13 C-24.13 24.14 -25.6 24.13 -27.06 24.12 C-27.81 24.13 -28.55 24.13 -29.32 24.14 C-30.03 24.14 -30.74 24.13 -31.47 24.13 C-32.64 24.09 -33.8 24.05 -35 24 C-35.33 23.67 -35.66 23.34 -36 23 C-36.06 21.84 -36.11 20.67 -36.17 19.47 C-36.18 18 -36.19 16.53 -36.19 15.06 C-36.2 14.32 -36.21 13.58 -36.22 12.81 C-36.23 12.1 -36.23 11.39 -36.23 10.66 C-36.15 9.45 -36.08 8.24 -36 7 C-35.34 6.34 -34.68 5.68 -34 5 C-33.24 4.9 -32.47 4.8 -31.69 4.7 C-30.36 4.69 -30.36 4.69 -29 4.69 C-28.11 4.67 -27.23 4.65 -26.31 4.64 C-25.17 4.82 -25.17 4.82 -24 5 C-23.01 6.49 -23.01 6.49 -22 8 C-21.88 9.52 -21.88 9.52 -21.75 11.06 C-21.83 12.03 -21.91 13 -22 14 C-22.66 14.66 -23.32 15.32 -24 16 C-24.86 16.06 -25.72 16.13 -26.6 16.2 C-27.6 16.17 -28.6 16.15 -29.62 16.12 C-31.13 16.1 -31.13 16.1 -32.66 16.07 C-33.43 16.05 -34.21 16.02 -35 16 C-34.67 17.65 -34.34 19.3 -34 21 C-29.05 21.33 -24.1 21.66 -19 22 C-18.94 20.86 -18.88 19.71 -18.82 18.54 C-18.73 17.04 -18.65 15.55 -18.56 14.06 C-18.52 13.31 -18.48 12.55 -18.44 11.78 C-18.4 11.06 -18.36 10.34 -18.32 9.6 C-18.21 8.41 -18.11 7.22 -18 6 C-17.67 5.67 -17.34 5.34 -17 5 C-15.65 4.95 -15.65 4.95 -14.28 4.9 C-12.62 4.92 -12.62 4.92 -10.94 4.94 C-9.83 4.95 -8.73 4.96 -7.59 4.96 C-6.74 4.98 -5.88 4.99 -5 5 C-4.67 4.01 -4.34 3.02 -4 2 C-3.34 1.61 -2.68 1.22 -2 0.81 C-1.34 0.54 -0.68 0.28 0 0 Z " fill="#FBFBFB" transform="translate(246,355)"/>
<path d="M0 0 C1.04 -0.08 1.04 -0.08 2.1 -0.16 C4.69 -0.21 7.28 -0.24 9.88 -0.25 C10.77 -0.27 11.67 -0.29 12.6 -0.31 C13.47 -0.32 14.34 -0.32 15.24 -0.33 C16.49 -0.29 16.49 -0.29 17.77 -0.26 C18.5 -0.17 19.24 -0.09 20 0 C20.99 0.46 21.99 0.92 23.01 1.39 C23.67 1.92 24.32 2.45 25 3 C25.66 3.66 26.32 4.32 27 5 C27.21 6.2 27.41 7.39 27.62 8.62 C27.75 9.74 27.87 10.85 28 12 C24.37 12 20.74 12 17 12 C16.91 13.5 16.91 13.5 16.82 15.03 C16.73 16.32 16.65 17.61 16.56 18.94 C16.48 20.23 16.4 21.51 16.32 22.84 C16.21 23.88 16.11 24.93 16 26 C15.67 26.33 15.34 26.66 15 27 C14.27 27.06 13.54 27.11 12.79 27.17 C11.89 27.17 10.99 27.18 10.06 27.19 C9.17 27.2 8.27 27.22 7.35 27.23 C6.57 27.15 5.8 27.08 5 27 C4.34 26.34 3.68 25.68 3 25 C2.86 23.85 2.73 22.71 2.59 21.52 C2.51 20.14 2.44 18.76 2.38 17.38 C2.34 16.67 2.3 15.96 2.26 15.23 C2.16 13.49 2.08 11.75 2 10 C0.33 9.66 -1.33 9.33 -3 9 C-3.33 9 -3.66 9 -4 9 C-4 9.66 -4 10.32 -4 11 C-5.32 11.33 -6.64 11.66 -8 12 C-7.92 10.93 -7.83 9.86 -7.75 8.75 C-7.5 7.51 -7.25 6.27 -7 5 C-6.38 4.22 -5.76 3.43 -5.12 2.62 C-4.42 2.09 -3.72 1.55 -3 1 C-2.01 0.67 -1.02 0.34 0 0 Z " fill="#242424" transform="translate(474,300)"/>
<path d="M0 0 C2.97 0.5 2.97 0.5 6 1 C6 6.61 6 12.22 6 18 C8.97 18 11.94 18 15 18 C15 12.06 15 6.12 15 0 C15.66 0 16.32 0 17 0 C17 5.94 17 11.88 17 18 C19.97 18 22.94 18 26 18 C26 12.39 26 6.78 26 1 C26.33 1 26.66 1 27 1 C27 6.94 27 12.88 27 19 C19.62 19.25 19.62 19.25 17.31 19.3 C16.7 19.33 16.1 19.36 15.48 19.39 C14.33 19.59 13.18 19.79 12 20 C11.51 20.68 11.03 21.35 10.52 22.05 C10.35 22.69 10.18 23.34 10 24 C9.34 23.67 8.68 23.34 8 23 C8 22.34 8 21.68 8 21 C7.34 21 6.68 21 6 21 C6 21.66 6 22.32 6 23 C4.89 23.19 3.77 23.37 2.62 23.56 C0.83 23.78 0.83 23.78 -1 24 C-1.66 23.67 -2.32 23.34 -3 23 C-3 22.34 -3 21.68 -3 21 C-6.3 20.67 -9.6 20.34 -13 20 C-13.33 19.01 -13.66 18.02 -14 17 C-14.04 15.92 -14.09 14.83 -14.13 13.71 C-14.13 11.85 -14.13 11.85 -14.12 9.94 C-14.13 8.69 -14.13 7.44 -14.13 6.15 C-14.09 5.11 -14.05 4.07 -14 3 C-13.67 2.34 -13.34 1.68 -13 1 C-8.71 1 -4.42 1 0 1 C0 0.67 0 0.34 0 0 Z " fill="#BCBCBC" transform="translate(438,360)"/>
<path d="M0 0 C2 1 2 1 2 1 Z M-5 1 C-3.35 1 -1.7 1 0 1 C0 1.66 0 2.32 0 3 C0.66 3 1.32 3 2 3 C2 3.66 2 4.32 2 5 C2.66 4.67 3.32 4.34 4 4 C5.08 3.97 6.15 3.94 7.26 3.9 C9.17 3.92 9.17 3.92 11.12 3.94 C12.41 3.95 13.69 3.96 15.01 3.96 C16.49 3.98 16.49 3.98 18 4 C18 4.66 18 5.32 18 6 C16.02 6 14.04 6 12 6 C12 11.61 12 17.22 12 23 C11.34 23 10.68 23 10 23 C10 17.72 10 12.44 10 7 C8.02 7 6.04 7 4 7 C4 13.27 4 19.54 4 26 C3.01 26 2.02 26 1 26 C1.33 25.34 1.66 24.68 2 24 C1.23 24.02 0.46 24.05 -0.34 24.07 C-1.34 24.09 -2.34 24.11 -3.38 24.12 C-4.37 24.15 -5.37 24.17 -6.4 24.2 C-7.69 24.1 -7.69 24.1 -9 24 C-9.66 23.34 -10.32 22.68 -11 22 C-11.02 20.72 -11.04 19.44 -11.06 18.12 C-11.04 17.42 -11.02 16.71 -11 15.98 C-11 15.32 -11 14.67 -11 14 C-11.25 12.76 -11.25 12.76 -11.5 11.5 C-11.66 11 -11.83 10.51 -12 10 C-12.66 10.66 -13.32 11.32 -14 12 C-14.39 11.36 -14.78 10.72 -15.19 10.06 C-15.79 9.38 -16.38 8.7 -17 8 C-18.65 7.67 -20.3 7.34 -22 7 C-22 12.28 -22 17.56 -22 23 C-22.99 23 -23.98 23 -25 23 C-25.03 20.02 -25.05 17.04 -25.06 14.06 C-25.07 13.21 -25.08 12.36 -25.09 11.49 C-25.09 10.68 -25.09 9.87 -25.1 9.04 C-25.1 8.29 -25.11 7.54 -25.11 6.77 C-25.08 6.18 -25.04 5.6 -25 5 C-24.67 4.67 -24.34 4.34 -24 4 C-22.92 3.98 -21.84 3.96 -20.73 3.94 C-18.67 3.96 -16.61 4 -14.55 4.04 C-13.88 4.05 -13.22 4.05 -12.54 4.06 C-10.79 4.03 -10.79 4.03 -9 4 C-8.01 3.67 -7.02 3.34 -6 3 C-5.67 2.34 -5.34 1.68 -5 1 Z " fill="#9B9B9B" transform="translate(190,356)"/>
<path d="M0 0 C1.32 0 2.64 0 4 0 C4 11.88 4 23.76 4 36 C0.37 36 -3.26 36 -7 36 C-7 27.75 -7 19.5 -7 11 C-7.99 11.5 -7.99 11.5 -9 12 C-10.79 12.03 -10.79 12.03 -12.62 12.06 C-13.74 12.04 -14.85 12.02 -16 12 C-16 9.36 -16 6.72 -16 4 C-13.42 3.33 -10.83 2.66 -8.25 2 C-7.16 1.71 -7.16 1.71 -6.04 1.42 C-5.33 1.24 -4.62 1.06 -3.89 0.88 C-2.61 0.59 -1.32 0.3 0 0 Z " fill="#242424" transform="translate(392,300)"/>
<path d="M0 0 C0.99 0.33 1.98 0.66 3 1 C3.33 5.29 3.66 9.58 4 14 C4.54 13.15 5.09 12.29 5.64 11.41 C6.36 10.31 7.08 9.2 7.81 8.06 C8.52 6.96 9.23 5.86 9.96 4.72 C10.97 3.37 10.97 3.37 12 2 C12.99 1.67 13.98 1.34 15 1 C15 6.61 15 12.22 15 18 C14.67 18 14.34 18 14 18 C14 13.38 14 8.76 14 4 C13.34 4 12.68 4 12 4 C11.73 4.68 11.46 5.36 11.19 6.06 C10.8 7.03 10.4 8 10 9 C9.46 10.09 8.93 11.19 8.38 12.31 C7.92 13.53 7.47 14.75 7 16 C6.91 17.1 6.91 17.1 6.81 18.23 C6.81 19.32 6.81 19.32 6.81 20.44 C6.87 21.61 6.94 22.79 7 24 C6.67 23.34 6.34 22.68 6 22 C4.68 22 3.36 22 2 22 C1.67 22.66 1.34 23.32 1 24 C-0.32 23.34 -1.64 22.68 -3 22 C-3 21.34 -3 20.68 -3 20 C-9.93 19.5 -9.93 19.5 -17 19 C-17 13.06 -17 7.12 -17 1 C-13.65 0.97 -10.29 0.93 -6.94 0.9 C-5.97 0.93 -5 0.97 -4 1 C-3.67 1.33 -3.34 1.66 -3 2 C-2.98 2.85 -2.96 3.69 -2.94 4.56 C-2.96 5.37 -2.98 6.17 -3 7 C-2.01 7 -1.02 7 0 7 C0 4.69 0 2.38 0 0 Z " fill="#C1C1C1" transform="translate(147,360)"/>
<path d="M0 0 C0.98 -0.11 0.98 -0.11 1.98 -0.22 C2.68 -0.24 3.37 -0.27 4.09 -0.29 C4.79 -0.28 5.49 -0.27 6.21 -0.26 C6.93 -0.24 7.64 -0.21 8.38 -0.19 C9.11 -0.17 9.85 -0.16 10.61 -0.15 C12.4 -0.11 14.2 -0.06 16 0 C14.68 1.32 13.36 2.64 12 4 C12.33 4.66 12.66 5.32 13 6 C11.35 6.33 9.7 6.66 8 7 C8.33 7.66 8.66 8.32 9 9 C7.35 9 5.7 9 4 9 C4.05 10.18 4.09 11.36 4.14 12.58 C4.18 14.14 4.21 15.69 4.25 17.25 C4.3 18.42 4.3 18.42 4.35 19.61 C4.36 20.36 4.38 21.11 4.39 21.89 C4.37 22.62 4.35 23.34 4.33 24.09 C4.22 24.72 4.11 25.35 4 26 C3.36 26.78 2.72 27.57 2.06 28.38 C1.38 28.91 0.7 29.45 0 30 C-0.62 31.36 -0.62 31.36 -1.25 32.75 C-1.5 33.49 -1.75 34.24 -2 35 C-2.78 34.63 -3.57 34.26 -4.38 33.88 C-5.24 33.26 -6.11 32.64 -7 32 C-7.57 30.7 -7.57 30.7 -8.14 29.38 C-8.43 28.26 -8.71 27.15 -9 26 C-9.1 24.73 -9.2 23.47 -9.3 22.16 C-9.32 20.79 -9.32 19.43 -9.31 18.06 C-9.33 17.39 -9.34 16.71 -9.36 16.01 C-9.36 15.34 -9.36 14.67 -9.36 13.97 C-9.24 12.66 -9.12 11.35 -9 10 C-8.62 8.74 -8.24 7.48 -7.86 6.18 C-7.24 5.13 -6.63 4.08 -6 3 C-5.12 2.36 -4.24 1.73 -3.34 1.07 C-2.24 0.72 -1.13 0.37 0 0 Z " fill="#232323" transform="translate(200,300)"/>
<path d="M0 0 C2.64 0 5.28 0 8 0 C8 0.99 8 1.98 8 3 C6.02 3.66 4.04 4.32 2 5 C2 10.28 2 15.56 2 21 C7.94 21 13.88 21 20 21 C20.33 15.72 20.66 10.44 21 5 C23.97 5 26.94 5 30 5 C30 10.61 30 16.22 30 22 C29.01 21.01 28.02 20.02 27 19 C26.53 19.43 26.05 19.87 25.56 20.31 C25.05 20.87 24.53 21.43 24 22 C23.5 23.49 23.5 23.49 23 25 C22.35 24.85 21.69 24.69 21.02 24.54 C20.02 24.36 19.03 24.18 18 24 C17.37 23.94 16.74 23.88 16.09 23.82 C13.95 23.68 11.82 23.55 9.69 23.44 C8.95 23.39 8.21 23.35 7.44 23.31 C5.63 23.2 3.81 23.1 2 23 C1.67 24.32 1.34 25.64 1 27 C0.01 25.35 -0.98 23.7 -2 22 C-2.33 23.32 -2.66 24.64 -3 26 C-3.66 26 -4.32 26 -5 26 C-5.33 25.34 -5.66 24.68 -6 24 C-6.99 23.34 -7.98 22.68 -9 22 C-8.34 22 -7.68 22 -7 22 C-7 16.39 -7 10.78 -7 5 C-5.02 5 -3.04 5 -1 5 C-0.67 3.35 -0.34 1.7 0 0 Z " fill="#F7F7F7" transform="translate(209,357)"/>
<path d="M0 0 C2.19 -0.04 4.37 -0.06 6.56 -0.07 C9.71 -0.06 12.85 -0.04 16 0 C16 0.66 16 1.32 16 2 C14.02 2 12.04 2 10 2 C10 7.61 10 13.22 10 19 C9.01 19 8.02 19 7 19 C7 13.72 7 8.44 7 3 C6.01 3.33 5.02 3.66 4 4 C3.67 4.66 3.34 5.32 3 6 C2.67 6.33 2.34 6.66 2 7 C1.92 7.73 1.84 8.46 1.75 9.21 C1.63 11.03 1.5 12.84 1.38 14.65 C1.25 15.43 1.13 16.2 1 17 C0.34 17.66 -0.32 18.32 -1 19 C-1.84 19.09 -2.67 19.18 -3.53 19.27 C-4.51 19.26 -5.49 19.26 -6.5 19.25 C-7.48 19.26 -8.46 19.26 -9.47 19.27 C-10.3 19.18 -11.14 19.09 -12 19 C-12.66 18.34 -13.32 17.68 -14 17 C-14.09 15.95 -14.18 14.9 -14.27 13.81 C-14.26 12.55 -14.26 11.3 -14.25 10 C-14.26 8.74 -14.26 7.48 -14.27 6.19 C-14.18 5.14 -14.09 4.08 -14 3 C-13.34 2.34 -12.68 1.68 -12 1 C-11.25 0.86 -10.51 0.73 -9.74 0.59 C-7.72 0.44 -5.69 0.29 -3.66 0.15 C-2.45 0.1 -1.25 0.05 0 0 Z " fill="#C0C0C0" transform="translate(389,360)"/>
<path d="M0 0 C0.91 -0.05 0.91 -0.05 1.85 -0.1 C3.9 -0.07 5.95 -0.03 8 0 C8 1.32 8 2.64 8 4 C9.65 4 11.3 4 13 4 C13 3.01 13 2.02 13 1 C13.99 0.67 14.98 0.34 16 0 C16.33 1.32 16.66 2.64 17 4 C17.66 4 18.32 4 19 4 C19 5.32 19 6.64 19 8 C19.66 8.33 20.32 8.66 21 9 C20.01 9.5 20.01 9.5 19 10 C19 10.99 19 11.98 19 13 C18.67 12.34 18.34 11.68 18 11 C17.34 11 16.68 11 16 11 C16 16.28 16 21.56 16 27 C15.34 27 14.68 27 14 27 C13.67 22.38 13.34 17.76 13 13 C12.39 14.01 11.77 15.02 11.14 16.06 C10.32 17.38 9.5 18.69 8.69 20 C8.28 20.67 7.88 21.34 7.46 22.02 C7.07 22.66 6.67 23.29 6.26 23.94 C5.52 24.95 4.77 25.96 4 27 C3.01 27 2.02 27 1 27 C0.94 25.96 0.88 24.92 0.82 23.85 C0.73 22.44 0.65 21.03 0.56 19.62 C0.52 18.9 0.48 18.17 0.43 17.42 C0.3 15.28 0.16 13.14 0 11 C-0.2 9.02 -0.4 7.04 -0.62 5.06 C-0.72 4.29 -0.82 3.52 -0.91 2.72 C-0.94 2.15 -0.97 1.59 -1 1 C-0.67 0.67 -0.34 0.34 0 0 Z " fill="#F5F5F5" transform="translate(521,352)"/>
<path d="M0 0 C1.76 -0.03 1.76 -0.03 3.56 -0.06 C4.7 -0.04 5.83 -0.02 7 0 C7.33 0.99 7.66 1.98 8 3 C7.67 3.66 7.34 4.32 7 5 C7.66 5 8.32 5 9 5 C9.33 4.01 9.66 3.02 10 2 C10.33 3.32 10.66 4.64 11 6 C11.66 6 12.32 6 13 6 C12.67 4.68 12.34 3.36 12 2 C13.65 2 15.3 2 17 2 C17 8.27 17 14.54 17 21 C9.08 21 1.16 21 -7 21 C-7 15.06 -7 9.12 -7 3 C-6.34 3 -5.68 3 -5 3 C-5 8.28 -5 13.56 -5 19 C-2.36 19 0.28 19 3 19 C2.91 16.75 2.8 14.5 2.69 12.25 C2.63 11 2.57 9.74 2.51 8.45 C2.34 7.31 2.17 6.17 2 5 C1.49 4.19 0.98 3.38 0.46 2.55 C-0.26 1.78 -0.26 1.78 -1 1 C-0.67 0.67 -0.34 0.34 0 0 Z " fill="#EFEFEF" transform="translate(313,358)"/>
<path d="M0 0 C3.35 -0.03 6.71 -0.07 10.06 -0.1 C11.03 -0.07 12 -0.03 13 0 C13.33 0.33 13.66 0.66 14 1 C14.13 2.09 14.26 3.18 14.39 4.31 C14.49 5.68 14.59 7.06 14.69 8.44 C14.75 9.13 14.81 9.83 14.87 10.54 C14.94 11.54 14.94 11.54 15.01 12.56 C15.01 13.69 15 14.83 15 16 C14.34 16.66 13.68 17.32 13 18 C12 18.06 10.99 18.13 9.96 18.2 C6.64 18.13 3.32 18.07 0 18 C0 12.06 0 6.12 0 0 Z " fill="#A6A6A6" transform="translate(270,361)"/>
<path d="M0 0 C0.48 0.36 0.96 0.71 1.46 1.08 C1.97 1.71 2.48 2.35 3 3 C3.17 4.04 3.34 5.07 3.51 6.14 C3.57 7.31 3.63 8.48 3.69 9.69 C3.79 11.46 3.79 11.46 3.89 13.26 C3.92 14.17 3.96 15.07 4 16 C4.54 15.06 5.09 14.12 5.64 13.16 C6.37 11.94 7.09 10.72 7.81 9.5 C8.17 8.88 8.53 8.26 8.89 7.62 C9.42 6.74 9.42 6.74 9.96 5.84 C10.97 4.44 10.97 4.44 12 3 C12.99 3 13.98 3 15 3 C15 8.94 15 14.88 15 21 C14.34 21 13.68 21 13 21 C12.5 14.56 12.5 14.56 12 8 C11.46 8.94 10.91 9.88 10.36 10.84 C9.63 12.06 8.91 13.28 8.19 14.5 C7.83 15.12 7.47 15.74 7.11 16.38 C6.76 16.97 6.4 17.55 6.04 18.16 C5.03 19.56 5.03 19.56 4 21 C3.01 21 2.02 21 1 21 C0.67 20.34 0.34 19.68 0 19 C-0.33 20.65 -0.66 22.3 -1 24 C-1.33 23.34 -1.66 22.68 -2 22 C-2.99 21.67 -3.98 21.34 -5 21 C-5 18.36 -5 15.72 -5 13 C-8.3 13 -11.6 13 -15 13 C-15 15.64 -15 18.28 -15 21 C-15.66 21 -16.32 21 -17 21 C-17 15.06 -17 9.12 -17 3 C-16.01 3.5 -16.01 3.5 -15 4 C-15 6.31 -15 8.62 -15 11 C-11.37 11 -7.74 11 -4 11 C-4 8.03 -4 5.06 -4 2 C-2.68 1.34 -1.36 0.68 0 0 Z " fill="#E9E9E9" transform="translate(503,358)"/>
<path d="M0 0 C0.76 -0.1 1.53 -0.2 2.31 -0.3 C3.64 -0.31 3.64 -0.31 5 -0.31 C5.89 -0.33 6.77 -0.35 7.69 -0.36 C8.83 -0.18 8.83 -0.18 10 0 C10.66 0.99 11.32 1.98 12 3 C12.12 4.52 12.12 4.52 12.25 6.06 C12.17 7.03 12.09 8 12 9 C11.34 9.66 10.68 10.32 10 11 C9.14 11.06 8.28 11.13 7.4 11.2 C6.4 11.17 5.4 11.15 4.38 11.12 C2.87 11.1 2.87 11.1 1.34 11.07 C0.57 11.05 -0.21 11.02 -1 11 C-0.67 12.65 -0.34 14.3 0 16 C4.95 16.33 9.9 16.66 15 17 C15.33 11.72 15.66 6.44 16 1 C19.96 1 23.92 1 28 1 C28 6.94 28 12.88 28 19 C27.67 19 27.34 19 27 19 C27 13.39 27 7.78 27 2 C24.03 2 21.06 2 18 2 C18.01 2.65 18.02 3.3 18.04 3.98 C18.05 5.78 18.06 7.58 18.06 9.38 C18.04 10.24 18.02 11.11 18 12 C17.88 13.18 17.75 14.35 17.62 15.56 C17.32 16.77 17.32 16.77 17 18 C16.34 18.33 15.68 18.66 15 19 C13.79 19.04 12.58 19.09 11.34 19.13 C9.87 19.14 8.4 19.13 6.94 19.12 C6.19 19.13 5.45 19.13 4.68 19.14 C3.97 19.14 3.26 19.13 2.53 19.13 C1.36 19.09 0.2 19.05 -1 19 C-1.33 18.67 -1.66 18.34 -2 18 C-2.06 16.84 -2.11 15.67 -2.17 14.47 C-2.18 13 -2.19 11.53 -2.19 10.06 C-2.2 9.32 -2.21 8.58 -2.22 7.81 C-2.23 7.1 -2.23 6.39 -2.23 5.66 C-2.15 4.45 -2.08 3.24 -2 2 C-1.34 1.34 -0.68 0.68 0 0 Z " fill="#A9A9A9" transform="translate(212,360)"/>
<path d="M0 0 C2.8 -0.1 5.6 -0.2 8.4 -0.29 C9.26 -0.2 10.12 -0.1 11 0 C11.66 0.99 12.32 1.98 13 3 C13.09 3.93 13.18 4.86 13.27 5.81 C13.26 6.86 13.26 7.92 13.25 9 C13.26 10.05 13.26 11.1 13.27 12.19 C13.13 13.58 13.13 13.58 13 15 C12.01 16.49 12.01 16.49 11 18 C9.71 18.15 9.71 18.15 8.4 18.29 C4.2 18.15 4.2 18.15 0 18 C0 12.06 0 6.12 0 0 Z " fill="#FDFDFD" transform="translate(226,309)"/>
<path d="M0 0 C1.04 -0.18 1.04 -0.18 2.09 -0.36 C2.89 -0.35 3.68 -0.33 4.5 -0.31 C5.69 -0.31 5.69 -0.31 6.91 -0.3 C7.6 -0.2 8.29 -0.1 9 0 C9.66 0.66 10.32 1.32 11 2 C11.08 3.14 11.15 4.27 11.23 5.44 C11.23 6.82 11.21 8.19 11.19 9.56 C11.19 10.26 11.19 10.96 11.19 11.68 C11.18 12.34 11.17 13.01 11.17 13.69 C11.08 15.33 11.08 15.33 11 17 C10.67 17.33 10.34 17.66 10 18 C9.27 18.06 8.54 18.11 7.79 18.17 C6.89 18.17 5.99 18.18 5.06 18.19 C4.17 18.2 3.27 18.22 2.35 18.23 C1.57 18.15 0.8 18.08 0 18 C-0.66 17.34 -1.32 16.68 -2 16 C-2.09 15.03 -2.18 14.06 -2.27 13.07 C-2.26 11.91 -2.26 10.75 -2.25 9.56 C-2.26 8.41 -2.26 7.26 -2.27 6.07 C-2.18 5.05 -2.09 4.04 -2 3 C-1.34 2.01 -0.68 1.02 0 0 Z " fill="#FEFEFE" transform="translate(479,309)"/>
<path d="M0 0 C3.3 0 6.6 0 10 0 C10 6.93 10 13.86 10 21 C6.04 21 2.08 21 -2 21 C-1.01 10.61 -1.01 10.61 0 0 Z " fill="#FBFBFB" transform="translate(114,357)"/>
<path d="M0 0 C3.63 0 7.26 0 11 0 C11 5.94 11 11.88 11 18 C9.39 18.04 7.78 18.08 6.12 18.12 C5.22 18.15 4.32 18.17 3.38 18.2 C2.6 18.13 1.81 18.07 1 18 C0.34 17.34 -0.32 16.68 -1 16 C-1.08 14.95 -1.15 13.9 -1.23 12.81 C-1.22 11.55 -1.2 10.3 -1.19 9 C-1.18 7.74 -1.17 6.48 -1.17 5.19 C-1.11 4.14 -1.06 3.08 -1 2 C-0.67 1.34 -0.34 0.68 0 0 Z " fill="#FDFDFD" transform="translate(204,309)"/>
<path d="M0 0 C0.33 1.32 0.66 2.64 1 4 C2.09 4.02 3.19 4.04 4.31 4.06 C5.53 4.04 6.75 4.02 8 4 C8.99 3.67 9.98 3.34 11 3 C11 9.27 11 15.54 11 22 C10.34 22 9.68 22 9 22 C8.67 17.38 8.34 12.76 8 8 C7.44 9.01 6.89 10.02 6.31 11.06 C5.55 12.38 4.78 13.69 4 15 C3.58 15.67 3.16 16.34 2.73 17.02 C2.3 17.66 1.88 18.29 1.44 18.94 C0.23 20.45 0.23 20.45 -1 22 C-1.99 22 -2.98 22 -4 22 C-4.12 18.9 -4.19 15.79 -4.25 12.69 C-4.28 11.81 -4.32 10.93 -4.35 10.02 C-4.36 9.17 -4.38 8.32 -4.39 7.45 C-4.37 6.65 -4.35 5.85 -4.33 5.03 C-4.22 4.36 -4.11 3.69 -4 3 C-3.33 2.31 -2.67 1.61 -1.98 0.89 C-1.33 0.6 -0.67 0.3 0 0 Z " fill="#F8F8F8" transform="translate(336,357)"/>
<path d="M0 0 C0.76 -0.06 1.52 -0.11 2.3 -0.17 C4.39 -0.18 6.48 -0.18 8.57 -0.16 C10.27 -0.08 10.27 -0.08 12 0 C13.13 0.14 14.26 0.27 15.43 0.41 C17.52 0.75 19.61 1.1 21.7 1.46 C22.84 1.73 22.84 1.73 24 2 C24.33 2.33 24.66 2.66 25 3 C25.02 4.01 25.04 5.02 25.06 6.06 C25.04 7.03 25.02 8 25 9 C23.21 9.19 21.42 9.38 19.62 9.56 C18.13 9.72 18.13 9.72 16.6 9.88 C15.74 9.92 14.88 9.96 14 10 C13.34 9.67 12.68 9.34 12 9 C12 8.01 12 7.02 12 6 C11.34 6.66 10.68 7.32 10 8 C9.61 7.36 9.22 6.72 8.81 6.06 C7.92 5.04 7.92 5.04 7 4 C5.35 3.67 3.7 3.34 2 3 C2 8.28 2 13.56 2 19 C1.01 19 0.02 19 -1 19 C-1.03 16.02 -1.05 13.04 -1.06 10.06 C-1.07 9.21 -1.08 8.36 -1.09 7.49 C-1.09 6.68 -1.09 5.87 -1.1 5.04 C-1.1 4.29 -1.11 3.54 -1.11 2.77 C-1.08 2.18 -1.04 1.6 -1 1 C-0.67 0.67 -0.34 0.34 0 0 Z " fill="#F9F9F9" transform="translate(166,360)"/>
<path d="M0 0 C1.32 0 2.64 0 4 0 C3.91 0.92 3.91 0.92 3.81 1.86 C3.69 2.67 3.56 3.48 3.44 4.31 C3.18 5.54 3.18 5.54 2.91 6.8 C2.61 7.52 2.31 8.25 2 9 C1.44 9.42 0.88 9.84 0.31 10.27 C-0.33 10.53 -0.97 10.79 -1.62 11.06 C-2.74 11.37 -3.85 11.68 -5 12 C-4.9 12.74 -4.79 13.49 -4.69 14.25 C-4.35 15.61 -4.35 15.61 -4 17 C-3.23 18.08 -3.23 18.08 -2.44 19.19 C-1.96 19.79 -1.49 20.38 -1 21 C-1 21.66 -1 22.32 -1 23 C-1.66 23 -2.32 23 -3 23 C-3.66 22.03 -4.32 21.06 -5 20.06 C-5.99 18.55 -5.99 18.55 -7 17 C-7.66 16.67 -8.32 16.34 -9 16 C-9.29 16.6 -9.58 17.2 -9.88 17.81 C-10.25 18.53 -10.62 19.26 -11 20 C-11.66 20.99 -12.32 21.98 -13 23 C-13.66 23 -14.32 23 -15 23 C-14.73 22.42 -14.46 21.85 -14.19 21.25 C-13.8 20.51 -13.4 19.76 -13 19 C-12.46 18.26 -11.93 17.51 -11.38 16.75 C-10.92 16.17 -10.47 15.6 -10 15 C-10.29 14.4 -10.58 13.8 -10.88 13.19 C-11.25 12.47 -11.62 11.74 -12 11 C-12.66 10.01 -13.32 9.02 -14 8 C-13.92 7.32 -13.83 6.64 -13.75 5.94 C-13.5 5.3 -13.25 4.66 -13 4 C-12.34 3.34 -11.68 2.68 -11 2 C-10.14 1.94 -9.28 1.87 -8.4 1.8 C-7.4 1.83 -6.4 1.85 -5.38 1.88 C-3.87 1.9 -3.87 1.9 -2.34 1.93 C-1.57 1.95 -0.79 1.98 0 2 C0 1.34 0 0.68 0 0 Z " fill="#F5F5F5" transform="translate(364,356)"/>
<path d="M0 0 C0.69 -0.03 1.37 -0.07 2.08 -0.11 C3.43 -0.15 3.43 -0.15 4.81 -0.19 C6.15 -0.24 6.15 -0.24 7.52 -0.29 C8.34 -0.2 9.16 -0.1 10 0 C10.6 0.33 11.2 0.66 11.81 1 C12.2 1.66 12.6 2.32 13 3 C13.1 4.25 13.19 5.5 13.29 6.79 C13.28 7.51 13.27 8.22 13.26 8.95 C13.24 9.69 13.21 10.43 13.19 11.19 C13.17 11.94 13.16 12.69 13.15 13.46 C13.11 15.31 13.06 17.15 13 19 C10.88 19.05 8.75 19.09 6.62 19.12 C5.44 19.15 4.26 19.17 3.04 19.2 C2.04 19.13 1.03 19.07 0 19 C-0.66 18.34 -1.32 17.68 -2 17 C-2.08 16.01 -2.17 15.02 -2.25 14 C-2.17 13.01 -2.08 12.02 -2 11 C-1.34 10.34 -0.68 9.68 0 9 C0.86 8.94 1.72 8.87 2.6 8.8 C3.6 8.83 4.6 8.85 5.62 8.88 C7.13 8.9 7.13 8.9 8.66 8.93 C9.43 8.95 10.21 8.98 11 9 C10.34 7.02 9.68 5.04 9 3 C6.03 2.67 3.06 2.34 0 2 C0 1.34 0 0.68 0 0 Z " fill="#A5A5A5" transform="translate(289,360)"/>
<path d="M0 0 C0.66 0 1.32 0 2 0 C2 2.31 2 4.62 2 7 C3.16 6.97 3.16 6.97 4.34 6.93 C5.34 6.91 6.34 6.89 7.38 6.88 C8.37 6.85 9.37 6.83 10.4 6.8 C11.26 6.87 12.12 6.93 13 7 C13.66 7.66 14.32 8.32 15 9 C15.12 10.73 15.12 10.73 15.25 12.5 C15.17 13.65 15.08 14.81 15 16 C14.34 16.66 13.68 17.32 13 18 C12 18.06 10.99 18.13 9.96 18.2 C6.64 18.13 3.32 18.07 0 18 C0 12.06 0 6.12 0 0 Z " fill="#ACACAC" transform="translate(244,361)"/>
<path d="M0 0 C0.89 -0.04 1.77 -0.09 2.69 -0.13 C3.78 -0.13 4.87 -0.13 6 -0.12 C7.09 -0.13 8.19 -0.13 9.31 -0.13 C10.64 -0.07 10.64 -0.07 12 0 C12.33 0.33 12.66 0.66 13 1 C13.06 2.13 13.12 3.27 13.19 4.44 C13.13 5.61 13.06 6.79 13 8 C12.34 8.66 11.68 9.32 11 10 C9.82 10.1 9.82 10.1 8.62 10.2 C7.71 10.17 6.81 10.15 5.88 10.12 C4.51 10.1 4.51 10.1 3.12 10.07 C2.42 10.05 1.72 10.02 1 10 C1 11.98 1 13.96 1 16 C4.63 16 8.26 16 12 16 C12 16.66 12 17.32 12 18 C10.21 18.03 8.42 18.05 6.62 18.06 C5.63 18.07 4.63 18.09 3.6 18.1 C2.74 18.07 1.88 18.03 1 18 C0.34 17.67 -0.32 17.34 -1 17 C-1.03 14.35 -1.05 11.71 -1.06 9.06 C-1.07 8.31 -1.08 7.55 -1.09 6.78 C-1.09 6.06 -1.09 5.34 -1.1 4.6 C-1.07 3.41 -1.03 2.22 -1 1 C-0.67 0.67 -0.34 0.34 0 0 Z " fill="#A0A0A0" transform="translate(470,361)"/>
<path d="M0 0 C1.3 -0.06 2.6 -0.12 3.94 -0.19 C5 -0.21 5 -0.21 6.09 -0.23 C6.72 -0.15 7.35 -0.08 8 0 C8.66 0.66 9.32 1.32 10 2 C10.08 2.92 10.15 3.84 10.23 4.79 C10.21 6.41 10.21 6.41 10.19 8.06 C10.18 9.69 10.18 9.69 10.17 11.35 C10.08 12.66 10.08 12.66 10 14 C9.67 14.33 9.34 14.66 9 15 C8.25 15.03 7.49 15.06 6.71 15.1 C5.34 15.08 5.34 15.08 3.94 15.06 C3.02 15.05 2.1 15.04 1.15 15.04 C0.44 15.02 -0.27 15.01 -1 15 C-1.03 12.69 -1.05 10.38 -1.06 8.06 C-1.07 6.77 -1.09 5.49 -1.1 4.16 C-1.07 3.12 -1.03 2.07 -1 1 C-0.67 0.67 -0.34 0.34 0 0 Z " fill="#FCFCFC" transform="translate(427,362)"/>
<path d="M0 0 C1.3 -0.06 2.6 -0.12 3.94 -0.19 C5 -0.21 5 -0.21 6.09 -0.23 C6.72 -0.15 7.35 -0.08 8 0 C8.66 0.66 9.32 1.32 10 2 C10.08 2.92 10.15 3.84 10.23 4.79 C10.21 6.41 10.21 6.41 10.19 8.06 C10.18 9.69 10.18 9.69 10.17 11.35 C10.08 12.66 10.08 12.66 10 14 C9.67 14.33 9.34 14.66 9 15 C8.25 15.03 7.49 15.06 6.71 15.1 C5.34 15.08 5.34 15.08 3.94 15.06 C3.02 15.05 2.1 15.04 1.15 15.04 C0.44 15.02 -0.27 15.01 -1 15 C-1.03 12.69 -1.05 10.38 -1.06 8.06 C-1.07 6.77 -1.09 5.49 -1.1 4.16 C-1.07 3.12 -1.03 2.07 -1 1 C-0.67 0.67 -0.34 0.34 0 0 Z " fill="#F8F8F8" transform="translate(378,362)"/>
<path d="M0 0 C0.29 0.62 0.58 1.24 0.88 1.88 C1.25 2.58 1.62 3.28 2 4 C2.66 4.66 3.32 5.32 4 6 C4.66 5.67 5.32 5.34 6 5 C6 6.65 6 8.3 6 10 C7.32 10.33 8.64 10.66 10 11 C10.33 12.32 10.66 13.64 11 15 C10.01 15.5 10.01 15.5 9 16 C9.33 16.66 9.66 17.32 10 18 C6.04 18 2.08 18 -2 18 C-2 17.01 -2 16.02 -2 15 C-2.66 15 -3.32 15 -4 15 C-4.33 14.01 -4.66 13.02 -5 12 C-5.33 12.99 -5.66 13.98 -6 15 C-6.99 14.01 -7.98 13.02 -9 12 C-7.68 10.02 -6.36 8.04 -5 6 C-4.01 6.33 -3.02 6.66 -2 7 C-1.16 7.96 -1.16 7.96 -0.31 8.94 C0.12 9.62 0.55 10.3 1 11 C1 11.66 1 12.32 1 13 C1.66 13 2.32 13 3 13 C2.63 12.55 2.25 12.11 1.87 11.64 C1.4 11.04 0.92 10.44 0.44 9.81 C-0.02 9.18 -0.48 8.54 -0.95 7.89 C-1.3 7.26 -1.64 6.64 -2 6 C-1.96 5.05 -1.92 4.1 -1.88 3.12 C-1.59 2.42 -1.3 1.72 -1 1 C-0.67 0.67 -0.34 0.34 0 0 Z " fill="#F7F7F7" transform="translate(360,366)"/>
<path d="M0 0 C2 1 2 1 2 1 Z M-5 1 C-4.09 0.92 -3.19 0.83 -2.25 0.75 C-1.51 0.83 -0.76 0.92 0 1 C0 1.66 0 2.32 0 3 C0.66 3 1.32 3 2 3 C2 3.66 2 4.32 2 5 C2.66 4.67 3.32 4.34 4 4 C5.08 3.97 6.15 3.94 7.26 3.9 C9.17 3.92 9.17 3.92 11.12 3.94 C12.41 3.95 13.69 3.96 15.01 3.96 C16 3.98 16.98 3.99 18 4 C18 4.66 18 5.32 18 6 C16.02 6 14.04 6 12 6 C12 11.61 12 17.22 12 23 C11.34 23 10.68 23 10 23 C10 17.72 10 12.44 10 7 C8.02 7 6.04 7 4 7 C4 13.27 4 19.54 4 26 C3.01 26 2.02 26 1 26 C1.33 25.34 1.66 24.68 2 24 C-1.63 24 -5.26 24 -9 24 C-9 23.67 -9 23.34 -9 23 C-5.04 22.67 -1.08 22.34 3 22 C2.86 19.52 2.71 17.04 2.56 14.56 C2.52 13.86 2.48 13.15 2.44 12.42 C2.4 11.75 2.36 11.07 2.32 10.38 C2.21 9.26 2.11 8.15 2 7 C1.67 6.67 1.34 6.34 1 6 C0.25 5.9 -0.51 5.79 -1.29 5.68 C-2.66 5.56 -2.66 5.56 -4.06 5.44 C-4.98 5.35 -5.9 5.27 -6.85 5.18 C-7.91 5.09 -7.91 5.09 -9 5 C-8.44 4.34 -7.89 3.68 -7.31 3 C-6.55 2.34 -5.79 1.68 -5 1 Z " fill="#C1C1C1" transform="translate(190,356)"/>
<path d="M0 0 C2.48 0.99 2.48 0.99 5 2 C5.66 1.34 6.32 0.68 7 0 C7 5.61 7 11.22 7 17 C4.03 17 1.06 17 -2 17 C-2 12.38 -2 7.76 -2 3 C-1.34 3 -0.68 3 0 3 C0 2.01 0 1.02 0 0 Z " fill="#F6F6F6" transform="translate(446,361)"/>
<path d="M0 0 C4.29 0 8.58 0 13 0 C13 7.59 13 15.18 13 23 C13.66 23 14.32 23 15 23 C15 24.98 15 26.96 15 29 C14.67 29 14.34 29 14 29 C14 27.35 14 25.7 14 24 C8.06 24 2.12 24 -4 24 C-4 25.65 -4 27.3 -4 29 C-4.33 29 -4.66 29 -5 29 C-5 27.02 -5 25.04 -5 23 C-4.34 23 -3.68 23 -3 23 C-2.94 22.45 -2.89 21.89 -2.83 21.32 C-2.58 18.8 -2.32 16.27 -2.06 13.75 C-1.98 12.88 -1.89 12 -1.8 11.11 C-1.71 10.26 -1.62 9.42 -1.54 8.55 C-1.46 7.77 -1.38 7 -1.3 6.2 C-1.2 5.47 -1.1 4.75 -1 4 C-0.67 2.68 -0.34 1.36 0 0 Z M1 2 C0.34 8.93 -0.32 15.86 -1 23 C2.96 23 6.92 23 11 23 C11 16.07 11 9.14 11 2 C7.7 2 4.4 2 1 2 Z " fill="#9B9B9B" transform="translate(113,355)"/>
<path d="M0 0 C0.66 0 1.32 0 2 0 C2 2.64 2 5.28 2 8 C5.63 8 9.26 8 13 8 C13 5.36 13 2.72 13 0 C13.66 0 14.32 0 15 0 C15 5.94 15 11.88 15 18 C14.34 18 13.68 18 13 18 C13 15.36 13 12.72 13 10 C9.7 10 6.4 10 3 10 C3.33 10.66 3.66 11.32 4 12 C4.68 12.37 5.36 12.74 6.06 13.12 C6.7 13.41 7.34 13.7 8 14 C8 15.98 8 17.96 8 20 C7.34 19.34 6.68 18.68 6 18 C4.68 19.65 3.36 21.3 2 23 C1.67 22.37 1.35 21.73 1.01 21.08 C0.68 20.06 0.34 19.05 0 18 C-0.05 17.31 -0.11 16.61 -0.17 15.9 C-0.18 15.13 -0.19 14.36 -0.2 13.57 C-0.18 11.95 -0.16 10.32 -0.12 8.69 C-0.12 7.85 -0.11 7.02 -0.1 6.15 C-0.07 4.1 -0.04 2.05 0 0 Z " fill="#DEDEDE" transform="translate(406,361)"/>
<path d="M0 0 C0.99 0 1.98 0 3 0 C2.67 0.66 2.34 1.32 2 2 C1.9 3.29 1.79 4.58 1.68 5.91 C1.6 7.48 1.52 9.05 1.44 10.62 C1.39 11.43 1.35 12.23 1.31 13.05 C1.2 15.04 1.1 17.02 1 19 C-0.32 19 -1.64 19 -3 19 C-3 18.34 -3 17.68 -3 17 C-6.63 17 -10.26 17 -14 17 C-14 15.02 -14 13.04 -14 11 C-10.7 10.67 -7.4 10.34 -4 10 C-3.57 8.36 -3.57 8.36 -3.12 6.69 C-2.75 5.47 -2.38 4.25 -2 3 C-1.34 2.01 -0.68 1.02 0 0 Z " fill="#EEEEEE" transform="translate(485,360)"/>
<path d="M0 0 C0.33 0.66 0.66 1.32 1 2 C1.66 2 2.32 2 3 2 C3 8.93 3 15.86 3 23 C3.99 22.67 4.98 22.34 6 22 C6.66 21.34 7.32 20.68 8 20 C8.86 20.01 9.72 20.02 10.6 20.02 C11.6 20.14 12.6 20.26 13.62 20.38 C14.63 20.49 15.63 20.6 16.66 20.71 C17.82 20.85 17.82 20.85 19 21 C19 21.33 19 21.66 19 22 C17.76 22.14 16.52 22.29 15.25 22.44 C14.52 22.53 13.79 22.62 13.04 22.71 C12.37 22.81 11.69 22.9 11 23 C10.22 23.19 9.43 23.37 8.62 23.56 C8.09 23.71 7.55 23.85 7 24 C6.34 24 5.68 24 5 24 C4.67 24.66 4.34 25.32 4 26 C3.01 25.34 2.02 24.68 1 24 C1.33 23.34 1.66 22.68 2 22 C-5.59 22 -13.18 22 -21 22 C-21 21.67 -21 21.34 -21 21 C-13.41 21 -5.82 21 2 21 C1.67 20.67 1.34 20.34 1 20 C0.32 19.97 -0.36 19.94 -1.07 19.9 C-2.3 19.92 -2.3 19.92 -3.56 19.94 C-4.39 19.95 -5.22 19.96 -6.07 19.96 C-6.7 19.98 -7.34 19.99 -8 20 C-8 19.67 -8 19.34 -8 19 C-5.36 19 -2.72 19 0 19 C-0.14 17.56 -0.29 16.12 -0.44 14.69 C-0.52 13.89 -0.6 13.09 -0.68 12.26 C-0.79 11.52 -0.89 10.77 -1 10 C-1.33 9.01 -1.66 8.02 -2 7 C-2.66 7 -3.32 7 -4 7 C-4 6.34 -4 5.68 -4 5 C-3.34 5 -2.68 5 -2 5 C-2.33 4.01 -2.66 3.02 -3 2 C-2.01 1.34 -1.02 0.68 0 0 Z " fill="#DDDDDD" transform="translate(463,358)"/>
<path d="M0 0 C0.66 0 1.32 0 2 0 C2 5.28 2 10.56 2 16 C4.64 16 7.28 16 10 16 C10 10.72 10 5.44 10 0 C10.66 0 11.32 0 12 0 C12 5.61 12 11.22 12 17 C14.97 16.67 17.94 16.34 21 16 C21.33 11.05 21.66 6.1 22 1 C22.33 1 22.66 1 23 1 C23 6.61 23 12.22 23 18 C15.41 18 7.82 18 0 18 C0 12.06 0 6.12 0 0 Z " fill="#A3A3A3" transform="translate(306,361)"/>
<path d="M0 0 C0.33 0 0.66 0 1 0 C1.07 1.01 1.07 1.01 1.15 2.05 C1.22 2.94 1.3 3.83 1.38 4.75 C1.44 5.63 1.51 6.51 1.59 7.42 C1.72 8.27 1.86 9.12 2 10 C2.34 10.69 2.69 11.37 3.04 12.08 C3.36 12.71 3.67 13.35 4 14 C4 15.32 4 16.64 4 18 C4.99 17.67 5.98 17.34 7 17 C7.73 15.96 8.47 14.91 9.23 13.84 C10.03 12.54 10.83 11.24 11.62 9.94 C12.43 8.63 13.23 7.33 14.04 6.03 C14.69 5.03 15.33 4.03 16 3 C16.33 3 16.66 3 17 3 C17 7.95 17 12.9 17 18 C16.67 18 16.34 18 16 18 C15.67 15.69 15.34 13.38 15 11 C14.01 12.49 14.01 12.49 13 14 C12.34 14 11.68 14 11 14 C11 15.65 11 17.3 11 19 C8.69 19 6.38 19 4 19 C4 19.99 4 20.98 4 22 C2.02 22 0.04 22 -2 22 C-2 21.01 -2 20.02 -2 19 C-1.34 19 -0.68 19 0 19 C0 12.73 0 6.46 0 0 Z " fill="#F3F3F3" transform="translate(518,361)"/>
<path d="M0 0 C0.66 0 1.32 0 2 0 C2 6.27 2 12.54 2 19 C1.34 19 0.68 19 0 19 C-0.33 14.38 -0.66 9.76 -1 5 C-1.61 6.01 -2.23 7.02 -2.86 8.06 C-3.68 9.38 -4.5 10.69 -5.31 12 C-5.72 12.67 -6.12 13.34 -6.54 14.02 C-6.93 14.66 -7.33 15.29 -7.74 15.94 C-8.48 16.95 -9.23 17.96 -10 19 C-10.99 19 -11.98 19 -13 19 C-13 13.06 -13 7.12 -13 1 C-12.01 1.5 -12.01 1.5 -11 2 C-10.86 2.9 -10.73 3.8 -10.59 4.72 C-10.52 5.82 -10.45 6.93 -10.38 8.06 C-10.3 9.17 -10.23 10.27 -10.15 11.41 C-10.1 12.26 -10.05 13.12 -10 14 C-9.61 13.41 -9.23 12.82 -8.83 12.21 C-7.24 9.79 -5.63 7.39 -4 5 C-3.26 3.99 -2.51 2.98 -1.75 1.94 C-0.88 0.98 -0.88 0.98 0 0 Z " fill="#A1A1A1" transform="translate(535,360)"/>
<path d="M0 0 C0.99 0 1.98 0 3 0 C3.33 4.29 3.66 8.58 4 13 C4.54 12.06 5.09 11.12 5.64 10.16 C6.37 8.94 7.09 7.72 7.81 6.5 C8.17 5.88 8.53 5.26 8.89 4.62 C9.24 4.03 9.6 3.45 9.96 2.84 C10.63 1.91 11.31 0.97 12 0 C12.99 0 13.98 0 15 0 C15 5.94 15 11.88 15 18 C14.34 18 13.68 18 13 18 C12.67 13.71 12.34 9.42 12 5 C11.46 5.94 10.91 6.88 10.36 7.84 C9.63 9.06 8.91 10.28 8.19 11.5 C7.83 12.12 7.47 12.74 7.11 13.38 C6.76 13.97 6.4 14.55 6.04 15.16 C5.03 16.56 5.03 16.56 4 18 C3.01 18 2.02 18 1 18 C0.67 12.06 0.34 6.12 0 0 Z " fill="#9E9E9E" transform="translate(503,361)"/>
<path d="M0 0 C0.33 0 0.66 0 1 0 C1 5.28 1 10.56 1 16 C1.99 16 2.98 16 4 16 C4.27 15.27 4.53 14.55 4.81 13.8 C5.4 12.41 5.4 12.41 6 11 C6.49 10.19 6.97 9.38 7.47 8.54 C8 7.77 8.52 6.99 9.06 6.19 C9.59 5.4 10.12 4.61 10.66 3.79 C11.1 3.2 11.54 2.61 12 2 C12.33 2 12.66 2 13 2 C13.06 3.22 13.12 4.43 13.19 5.69 C13.19 6.42 13.19 7.15 13.2 7.9 C13.13 8.59 13.07 9.29 13 10 C12.53 10.91 12.05 11.81 11.56 12.75 C10.79 13.86 10.79 13.86 10 15 C9.84 15.74 9.67 16.49 9.5 17.25 C9.34 17.83 9.17 18.4 9 19 C8.01 19.33 7.02 19.66 6 20 C4.02 19.67 2.04 19.34 0 19 C0 12.73 0 6.46 0 0 Z " fill="#F4F4F4" transform="translate(503,363)"/>
<path d="M0 0 C0.99 0.33 1.98 0.66 3 1 C3.17 1.6 3.33 2.2 3.5 2.81 C3.67 3.53 3.83 4.26 4 5 C4.52 5.74 5.03 6.49 5.56 7.25 C6.04 7.83 6.51 8.4 7 9 C6.75 9.54 6.5 10.07 6.25 10.62 C5.84 11.41 5.43 12.19 5 13 C3.95 14.61 3.95 14.61 2.88 16.25 C2.26 17.16 1.64 18.06 1 19 C2.32 19.66 3.64 20.32 5 21 C4.34 21.33 3.68 21.66 3 22 C2.67 22.66 2.34 23.32 2 24 C1.34 23.34 0.68 22.68 0 22 C-0.31 21.07 -0.31 21.07 -0.62 20.13 C-0.74 19.43 -0.87 18.72 -1 18 C-1.06 17.01 -1.06 17.01 -1.13 16 C-1.13 15.32 -1.13 14.63 -1.13 13.93 C-1.13 13.18 -1.14 12.43 -1.14 11.65 C-1.13 10.88 -1.13 10.11 -1.12 9.31 C-1.13 8.53 -1.13 7.74 -1.14 6.94 C-1.14 6.19 -1.13 5.44 -1.13 4.68 C-1.09 3.46 -1.05 2.25 -1 1 C-0.67 0.67 -0.34 0.34 0 0 Z " fill="#F5F5F5" transform="translate(348,360)"/>
<path d="M0 0 C1.96 -0.05 3.92 -0.09 5.88 -0.12 C7.51 -0.16 7.51 -0.16 9.18 -0.2 C10.11 -0.13 11.04 -0.07 12 0 C12.66 0.66 13.32 1.32 14 2 C14.09 3.05 14.18 4.1 14.27 5.19 C14.26 6.45 14.26 7.7 14.25 9 C14.26 10.26 14.26 11.52 14.27 12.81 C14.18 13.86 14.09 14.92 14 16 C13.34 16.66 12.68 17.32 12 18 C11.16 18.09 10.33 18.18 9.47 18.27 C8.49 18.26 7.51 18.26 6.5 18.25 C5.52 18.26 4.54 18.26 3.53 18.27 C2.7 18.18 1.86 18.09 1 18 C0.34 17.34 -0.32 16.68 -1 16 C-1.08 14.95 -1.15 13.9 -1.23 12.81 C-1.22 11.55 -1.2 10.3 -1.19 9 C-1.18 7.74 -1.17 6.48 -1.17 5.19 C-1.11 4.14 -1.06 3.08 -1 2 C-0.67 1.34 -0.34 0.68 0 0 Z M2 1 C1.67 1.33 1.34 1.66 1 2 C0.97 3.04 0.94 4.09 0.9 5.16 C0.91 6.45 0.93 7.74 0.94 9.06 C0.95 10.35 0.96 11.64 0.96 12.97 C0.98 13.97 0.99 14.97 1 16 C2.65 16.03 4.29 16.05 5.94 16.06 C7.31 16.08 7.31 16.08 8.71 16.1 C9.47 16.07 10.22 16.03 11 16 C11.33 15.67 11.66 15.34 12 15 C12.08 13.69 12.08 13.69 12.17 12.35 C12.17 11.26 12.18 10.18 12.19 9.06 C12.2 7.98 12.22 6.9 12.23 5.79 C12.12 4.41 12.12 4.41 12 3 C11.34 2.34 10.68 1.68 10 1 C9.37 0.92 8.74 0.85 8.09 0.77 C7.02 0.79 7.02 0.79 5.94 0.81 C4.64 0.87 3.34 0.94 2 1 Z " fill="#A4A4A4" transform="translate(425,361)"/>
<path d="M0 0 C0.33 0 0.66 0 1 0 C1 5.94 1 11.88 1 18 C8.59 18 16.18 18 24 18 C24 18.33 24 18.66 24 19 C22.75 19.06 21.49 19.12 20.2 19.18 C18.55 19.27 16.9 19.35 15.25 19.44 C14.43 19.48 13.6 19.52 12.75 19.56 C11.95 19.6 11.15 19.64 10.33 19.68 C9.23 19.74 9.23 19.74 8.11 19.79 C7.41 19.86 6.72 19.93 6 20 C4.91 20.2 4.91 20.2 3.79 20.39 C3.2 20.59 2.61 20.79 2 21 C1.67 21.66 1.34 22.32 1 23 C0.67 22.34 0.34 21.68 0 21 C-0.8 20.77 -1.61 20.55 -2.44 20.31 C-3.28 20.21 -4.13 20.11 -5 20 C-5.66 20.33 -6.32 20.66 -7 21 C-7 20.34 -7 19.68 -7 19 C-9.97 19 -12.94 19 -16 19 C-16 18.67 -16 18.34 -16 18 C-12.04 17.67 -8.08 17.34 -4 17 C-3.67 14.69 -3.34 12.38 -3 10 C-2.34 10 -1.68 10 -1 10 C-0.67 11.65 -0.34 13.3 0 15 C0 10.05 0 5.1 0 0 Z " fill="#E7E7E7" transform="translate(305,361)"/>
<path d="M0 0 C0.33 0 0.66 0 1 0 C1 4.95 1 9.9 1 15 C1.66 15.33 2.32 15.66 3 16 C3 16.66 3 17.32 3 18 C1.68 18 0.36 18 -1 18 C-1.33 18.66 -1.66 19.32 -2 20 C-2 19.34 -2 18.68 -2 18 C-2.66 18 -3.32 18 -4 18 C-4 17.01 -4 16.02 -4 15 C-5.32 15 -6.64 15 -8 15 C-8 14.01 -8 13.02 -8 12 C-7.59 11.37 -7.18 10.74 -6.76 10.1 C-6.22 9.43 -5.68 8.75 -5.12 8.06 C-4.59 7.39 -4.06 6.72 -3.51 6.04 C-3.01 5.36 -2.51 4.69 -2 4 C-1.61 3.26 -1.21 2.51 -0.8 1.75 C-0.41 0.88 -0.41 0.88 0 0 Z " fill="#F4F4F4" transform="translate(344,364)"/>
<path d="M0 0 C0.84 -0.09 1.67 -0.18 2.53 -0.27 C3.51 -0.26 4.49 -0.26 5.5 -0.25 C6.48 -0.26 7.46 -0.26 8.47 -0.27 C9.72 -0.13 9.72 -0.13 11 0 C11.66 0.66 12.32 1.32 13 2 C13.09 3.05 13.18 4.1 13.27 5.19 C13.26 6.45 13.26 7.7 13.25 9 C13.26 10.26 13.26 11.52 13.27 12.81 C13.18 13.86 13.09 14.92 13 16 C12.34 16.66 11.68 17.32 11 18 C10.16 18.09 9.33 18.18 8.47 18.27 C7.49 18.26 6.51 18.26 5.5 18.25 C4.52 18.26 3.54 18.26 2.53 18.27 C1.7 18.18 0.86 18.09 0 18 C-0.66 17.34 -1.32 16.68 -2 16 C-2.09 14.95 -2.18 13.9 -2.27 12.81 C-2.26 11.55 -2.26 10.3 -2.25 9 C-2.26 7.74 -2.26 6.48 -2.27 5.19 C-2.18 4.14 -2.09 3.08 -2 2 C-1.34 1.34 -0.68 0.68 0 0 Z M1 1 C0.67 1.33 0.34 1.66 0 2 C-0.03 3.04 -0.06 4.09 -0.1 5.16 C-0.09 6.45 -0.07 7.74 -0.06 9.06 C-0.05 10.35 -0.04 11.64 -0.04 12.97 C-0.02 13.97 -0.01 14.97 0 16 C1.65 16.03 3.29 16.05 4.94 16.06 C6.31 16.08 6.31 16.08 7.71 16.1 C8.47 16.07 9.22 16.03 10 16 C10.33 15.67 10.66 15.34 11 15 C11.08 13.69 11.08 13.69 11.17 12.35 C11.17 11.26 11.18 10.18 11.19 9.06 C11.2 7.98 11.22 6.9 11.23 5.79 C11.12 4.41 11.12 4.41 11 3 C10.34 2.34 9.68 1.68 9 1 C8.37 0.92 7.74 0.85 7.09 0.77 C6.02 0.79 6.02 0.79 4.94 0.81 C3.64 0.87 2.34 0.94 1 1 Z " fill="#A8A8A8" transform="translate(377,361)"/>
<path d="M0 0 C6.6 0 13.2 0 20 0 C19.67 1.32 19.34 2.64 19 4 C18.67 4.33 18.34 4.66 18 5 C17.42 5.04 16.83 5.07 16.23 5.11 C15.49 5.11 14.74 5.1 13.96 5.1 C13.16 5.09 12.35 5.09 11.51 5.09 C10.66 5.08 9.81 5.07 8.94 5.06 C8.08 5.06 7.23 5.05 6.35 5.05 C4.23 5.04 2.12 5.02 0 5 C0 3.35 0 1.7 0 0 Z " fill="#FDFDFD" transform="translate(314,322)"/>
<path d="M0 0 C0.75 -0.03 1.51 -0.06 2.29 -0.1 C3.66 -0.08 3.66 -0.08 5.06 -0.06 C5.98 -0.05 6.9 -0.04 7.85 -0.04 C8.56 -0.02 9.27 -0.01 10 0 C10.03 2.05 10.07 4.1 10.1 6.15 C10.07 6.76 10.03 7.37 10 8 C9.67 8.33 9.34 8.66 9 9 C8.33 9.04 7.66 9.09 6.97 9.13 C6.15 9.13 5.34 9.13 4.5 9.12 C3.69 9.13 2.87 9.13 2.03 9.13 C1.36 9.09 0.69 9.05 0 9 C-0.33 8.67 -0.66 8.34 -1 8 C-1.04 6.85 -1.08 5.69 -1.12 4.5 C-1.08 3.35 -1.04 2.19 -1 1 C-0.67 0.67 -0.34 0.34 0 0 Z " fill="#242424" transform="translate(451,328)"/>
<path d="M0 0 C3.96 0 7.92 0 12 0 C12 5.94 12 11.88 12 18 C11.67 18 11.34 18 11 18 C11 12.39 11 6.78 11 1 C8.03 1 5.06 1 2 1 C2.01 1.65 2.02 2.3 2.04 2.98 C2.05 4.78 2.06 6.58 2.06 8.38 C2.04 9.24 2.02 10.11 2 11 C1.88 12.18 1.75 13.35 1.62 14.56 C1.32 15.77 1.32 15.77 1 17 C0.34 17.33 -0.32 17.66 -1 18 C-2.22 18.03 -3.44 18.06 -4.7 18.1 C-6.17 18.09 -7.65 18.08 -9.12 18.06 C-9.88 18.06 -10.63 18.05 -11.41 18.05 C-13.27 18.04 -15.14 18.02 -17 18 C-17 17.01 -17 16.02 -17 15 C-11.72 15.33 -6.44 15.66 -1 16 C-0.67 10.72 -0.34 5.44 0 0 Z " fill="#9E9E9E" transform="translate(228,361)"/>
<path d="M0 0 C3.96 0 7.92 0 12 0 C12.33 5.94 12.66 11.88 13 18 C15.45 18.02 17.91 18.04 20.44 18.06 C21.6 18.08 21.6 18.08 22.78 18.09 C23.39 18.09 24 18.1 24.62 18.1 C26.29 18.05 26.29 18.05 28 18 C28.33 17.67 28.66 17.34 29 17 C29.03 16.39 29.06 15.78 29.1 15.15 C29.09 14.42 29.07 13.69 29.06 12.94 C29.04 11.64 29.02 10.34 29 9 C29.66 8.67 30.32 8.34 31 8 C31.12 8.8 31.25 9.61 31.38 10.44 C31.58 11.28 31.79 12.13 32 13 C32.66 13.33 33.32 13.66 34 14 C34 15.32 34 16.64 34 18 C33.34 18 32.68 18 32 18 C32 18.66 32 19.32 32 20 C31.01 20.33 30.02 20.66 29 21 C28.01 21.06 28.01 21.06 27.01 21.11 C26.27 21.11 25.53 21.1 24.77 21.1 C23.97 21.09 23.16 21.09 22.34 21.09 C21.09 21.08 21.09 21.08 19.81 21.06 C18.97 21.06 18.12 21.05 17.25 21.05 C15.17 21.04 13.08 21.02 11 21 C10.67 20.34 10.34 19.68 10 19 C9.99 18.38 9.99 17.76 9.98 17.12 C10.03 16.38 10.07 15.63 10.12 14.87 C10.17 14.06 10.22 13.26 10.27 12.43 C10.32 11.58 10.38 10.74 10.44 9.88 C10.49 9.03 10.54 8.18 10.6 7.3 C10.73 5.2 10.86 3.1 11 1 C7.37 1 3.74 1 0 1 C0 0.67 0 0.34 0 0 Z " fill="#E6E6E6" transform="translate(229,360)"/>
<path d="M0 0 C0.66 0 1.32 0 2 0 C2 6.27 2 12.54 2 19 C1.34 19 0.68 19 0 19 C-0.33 14.38 -0.66 9.76 -1 5 C-1.56 6.01 -2.11 7.02 -2.69 8.06 C-3.23 9.01 -3.23 9.01 -3.79 9.98 C-4.39 10.98 -4.39 10.98 -5 12 C-5.43 12.67 -5.86 13.34 -6.31 14.02 C-6.74 14.66 -7.18 15.29 -7.62 15.94 C-8.41 16.95 -9.19 17.96 -10 19 C-10.66 19 -11.32 19 -12 19 C-12 13.39 -12 7.78 -12 2 C-11.67 2 -11.34 2 -11 2 C-10.67 6.29 -10.34 10.58 -10 15 C-9.36 14 -8.72 13 -8.07 11.97 C-7.23 10.67 -6.4 9.37 -5.56 8.06 C-5.14 7.4 -4.72 6.74 -4.29 6.06 C-3.2 4.37 -2.1 2.68 -1 1 C-0.67 0.67 -0.34 0.34 0 0 Z " fill="#A1A1A1" transform="translate(345,360)"/>
<path d="M0 0 C2.97 0 5.94 0 9 0 C9 3.3 9 6.6 9 10 C6.03 10 3.06 10 0 10 C0 6.7 0 3.4 0 0 Z " fill="#A2A2A2" transform="translate(599,413)"/>
<path d="M0 0 C2.97 0 5.94 0 9 0 C9 3.3 9 6.6 9 10 C6.03 10 3.06 10 0 10 C0 6.7 0 3.4 0 0 Z " fill="#9A9A9A" transform="translate(586,413)"/>
<path d="M0 0 C0.66 0 1.32 0 2 0 C2.33 4.29 2.66 8.58 3 13 C3.54 12.15 4.09 11.29 4.64 10.41 C5.36 9.31 6.08 8.2 6.81 7.06 C7.52 5.96 8.23 4.86 8.96 3.72 C9.63 2.82 10.31 1.93 11 1 C11.99 0.67 12.98 0.34 14 0 C14 5.61 14 11.22 14 17 C13.67 17 13.34 17 13 17 C13 12.38 13 7.76 13 3 C12.34 3 11.68 3 11 3 C10.73 3.72 10.46 4.43 10.18 5.17 C9.79 6.1 9.4 7.04 9 8 C8.54 8.88 8.07 9.77 7.6 10.68 C6.84 11.98 6.84 11.98 6.06 13.31 C5.56 14.2 5.05 15.08 4.54 15.99 C3.78 16.98 3.78 16.98 3 18 C2.01 18 1.02 18 0 18 C0 12.06 0 6.12 0 0 Z " fill="#979797" transform="translate(148,361)"/>
<path d="M0 0 C1.35 -0.05 1.35 -0.05 2.72 -0.1 C4.38 -0.08 4.38 -0.08 6.06 -0.06 C7.72 -0.05 7.72 -0.05 9.41 -0.04 C10.26 -0.02 11.12 -0.01 12 0 C12 0.99 12 1.98 12 3 C8.7 3 5.4 3 2 3 C2 8.28 2 13.56 2 19 C1.01 19 0.02 19 -1 19 C-1.03 16.02 -1.05 13.04 -1.06 10.06 C-1.07 9.21 -1.08 8.36 -1.09 7.49 C-1.09 6.68 -1.09 5.87 -1.1 5.04 C-1.1 4.29 -1.11 3.54 -1.11 2.77 C-1.08 2.18 -1.04 1.6 -1 1 C-0.67 0.67 -0.34 0.34 0 0 Z " fill="#B7B7B7" transform="translate(166,360)"/>
<path d="M0 0 C0.66 0.66 1.32 1.32 2 2 C2.66 1.34 3.32 0.68 4 0 C4.99 0 5.98 0 7 0 C7.99 0.33 8.98 0.66 10 1 C10 3.64 10 6.28 10 9 C6.37 9 2.74 9 -1 9 C-0.67 6.03 -0.34 3.06 0 0 Z " fill="#F3F3F3" transform="translate(489,360)"/>
<path d="M0 0 C0.66 0.66 1.32 1.32 2 2 C2.99 2 3.98 2 5 2 C5.87 2.02 6.74 2.05 7.63 2.07 C8.6 2.09 9.57 2.11 10.56 2.12 C11.53 2.15 12.5 2.17 13.5 2.2 C14.33 2.13 15.15 2.07 16 2 C16.66 1.34 17.32 0.68 18 0 C19.3 -0.06 19.3 -0.06 20.62 -0.12 C21.41 -0.08 22.19 -0.04 23 0 C22.67 1.32 22.34 2.64 22 4 C22.66 4 23.32 4 24 4 C24 4.66 24 5.32 24 6 C22.35 6 20.7 6 19 6 C19 6.66 19 7.32 19 8 C17.02 8 15.04 8 13 8 C12.67 7.01 12.34 6.02 12 5 C10.72 4.94 9.44 4.88 8.12 4.81 C7.05 4.76 7.05 4.76 5.95 4.71 C5.3 4.8 4.66 4.9 4 5 C3.01 6.49 3.01 6.49 2 8 C1.67 7.24 1.34 6.47 1 5.69 C0.67 4.8 0.34 3.91 0 3 C0 2.01 0 1.02 0 0 Z " fill="#FAFAFA" transform="translate(372,376)"/>
<path d="M0 0 C0.66 0.99 1.32 1.98 2 3 C1.01 4.49 1.01 4.49 0 6 C0.99 5.67 1.98 5.34 3 5 C3.33 4.01 3.66 3.02 4 2 C4.33 3.65 4.66 5.3 5 7 C2.52 7.03 0.04 7.05 -2.44 7.06 C-3.14 7.07 -3.85 7.08 -4.58 7.09 C-5.59 7.09 -5.59 7.09 -6.62 7.1 C-7.74 7.07 -8.85 7.03 -10 7 C-10.33 6.67 -10.66 6.34 -11 6 C-11 4.35 -11 2.7 -11 1 C-5.56 0.5 -5.56 0.5 0 0 Z " fill="#F5F5F5" transform="translate(222,370)"/>
<path d="M0 0 C1.65 -0.03 3.29 -0.05 4.94 -0.06 C5.85 -0.07 6.77 -0.09 7.71 -0.1 C8.85 -0.05 8.85 -0.05 10 0 C10.33 0.33 10.66 0.66 11 1 C11.04 1.82 11.08 2.65 11.12 3.5 C11.08 4.32 11.04 5.15 11 6 C10.67 6.33 10.34 6.66 10 7 C9.25 7.03 8.49 7.06 7.71 7.1 C6.34 7.08 6.34 7.08 4.94 7.06 C4.02 7.05 3.1 7.04 2.15 7.04 C1.44 7.02 0.73 7.01 0 7 C0 4.69 0 2.38 0 0 Z " fill="#F8F8F8" transform="translate(246,370)"/>
<path d="M0 0 C0.82 0.78 1.65 1.57 2.5 2.38 C3.32 3.24 4.15 4.11 5 5 C5 5.66 5 6.32 5 7 C5.8 6.22 6.61 5.43 7.44 4.62 C8.28 3.76 9.13 2.89 10 2 C10.33 1.34 10.66 0.68 11 0 C11.66 0 12.32 0 13 0 C12.57 1.18 12.57 1.18 12.12 2.38 C11.75 3.24 11.38 4.11 11 5 C10.34 5.66 9.68 6.32 9 7 C9.06 7.78 9.12 8.57 9.19 9.38 C9.46 10.24 9.72 11.11 10 12 C10.52 12.72 11.03 13.44 11.56 14.19 C12.04 14.79 12.51 15.38 13 16 C13 16.66 13 17.32 13 18 C12.34 18 11.68 18 11 18 C10.34 17.03 9.68 16.06 9 15.06 C8.34 14.05 7.68 13.04 7 12 C6.34 11.67 5.68 11.34 5 11 C4.71 11.6 4.42 12.2 4.12 12.81 C3.75 13.53 3.38 14.26 3 15 C2.01 16.49 2.01 16.49 1 18 C0.34 18 -0.32 18 -1 18 C-0.73 17.42 -0.46 16.85 -0.19 16.25 C0.2 15.51 0.6 14.76 1 14 C1.54 13.26 2.07 12.51 2.62 11.75 C3.08 11.17 3.53 10.6 4 10 C3.71 9.4 3.42 8.8 3.12 8.19 C2.57 7.1 2.57 7.1 2 6 C1.34 5.01 0.68 4.02 0 3 C0 2.01 0 1.02 0 0 Z " fill="#A1A1A1" transform="translate(350,361)"/>
<path d="M0 0 C0.99 0.5 0.99 0.5 2 1 C2 3.31 2 5.62 2 8 C5.63 8 9.26 8 13 8 C13 5.36 13 2.72 13 0 C13.33 0 13.66 0 14 0 C14 5.61 14 11.22 14 17 C13.67 17 13.34 17 13 17 C13 14.69 13 12.38 13 10 C9.37 10 5.74 10 2 10 C2 12.64 2 15.28 2 18 C1.34 18 0.68 18 0 18 C0 12.06 0 6.12 0 0 Z " fill="#9B9B9B" transform="translate(486,361)"/>
<path d="M0 0 C1.46 -0.05 2.92 -0.09 4.38 -0.12 C5.19 -0.15 6 -0.17 6.84 -0.2 C7.91 -0.1 7.91 -0.1 9 0 C9.66 0.66 10.32 1.32 11 2 C10.88 2.87 10.75 3.73 10.62 4.62 C10.42 5.41 10.21 6.19 10 7 C6.7 7 3.4 7 0 7 C0 4.69 0 2.38 0 0 Z " fill="#FBFBFB" transform="translate(132,370)"/>
<path d="M0 0 C2.64 0 5.28 0 8 0 C8 2.97 8 5.94 8 9 C5.36 9 2.72 9 0 9 C0 6.03 0 3.06 0 0 Z " fill="#9B9B9B" transform="translate(573,413)"/>
<path d="M0 0 C0.63 -0.08 1.26 -0.15 1.91 -0.23 C2.62 -0.22 3.33 -0.2 4.06 -0.19 C5.36 -0.13 6.66 -0.06 8 0 C8.33 0.33 8.66 0.66 9 1 C9.04 1.82 9.08 2.65 9.12 3.5 C9.08 4.32 9.04 5.15 9 6 C8.67 6.33 8.34 6.66 8 7 C7.25 7.03 6.49 7.06 5.71 7.1 C4.34 7.08 4.34 7.08 2.94 7.06 C2.02 7.05 1.1 7.04 0.15 7.04 C-0.56 7.02 -1.27 7.01 -2 7 C-2.04 6.22 -2.08 5.43 -2.12 4.62 C-2.08 3.76 -2.04 2.89 -2 2 C-1.34 1.34 -0.68 0.68 0 0 Z " fill="#F2F2F2" transform="translate(213,362)"/>
<path d="M0 0 C0.91 -0.05 0.91 -0.05 1.85 -0.1 C3.9 -0.07 5.95 -0.03 8 0 C8 1.32 8 2.64 8 4 C9.65 4 11.3 4 13 4 C13 3.34 13 2.68 13 2 C13.66 2 14.32 2 15 2 C14.67 3.32 14.34 4.64 14 6 C8.06 6.5 8.06 6.5 2 7 C2 7.99 2 8.98 2 10 C1.01 10.5 1.01 10.5 0 11 C-0.19 9.35 -0.38 7.71 -0.56 6.06 C-0.67 5.15 -0.77 4.23 -0.88 3.29 C-0.92 2.53 -0.96 1.78 -1 1 C-0.67 0.67 -0.34 0.34 0 0 Z " fill="#F3F3F3" transform="translate(521,352)"/>
<path d="M0 0 C0.63 -0.08 1.26 -0.15 1.91 -0.23 C2.62 -0.22 3.33 -0.2 4.06 -0.19 C5.36 -0.13 6.66 -0.06 8 0 C8.33 0.33 8.66 0.66 9 1 C9.04 1.82 9.08 2.65 9.12 3.5 C9.08 4.32 9.04 5.15 9 6 C8.67 6.33 8.34 6.66 8 7 C6.98 7.05 6.98 7.05 5.93 7.1 C5.11 7.09 4.29 7.07 3.44 7.06 C2.61 7.05 1.78 7.04 0.93 7.04 C0.3 7.02 -0.34 7.01 -1 7 C-1.31 5.82 -1.31 5.82 -1.62 4.62 C-1.75 3.76 -1.87 2.89 -2 2 C-1.34 1.34 -0.68 0.68 0 0 Z " fill="#F0F0F0" transform="translate(291,370)"/>
<path d="M0 0 C1.65 0 3.3 0 5 0 C5.66 0.66 6.32 1.32 7 2 C7.33 2.99 7.66 3.98 8 5 C8 5.66 8 6.32 8 7 C7.01 7.5 7.01 7.5 6 8 C5.79 8.85 5.59 9.69 5.38 10.56 C5.19 11.77 5.19 11.77 5 13 C3.68 12.34 2.36 11.68 1 11 C0.67 11.99 0.34 12.98 0 14 C0 9.38 0 4.76 0 0 Z " fill="#F8F8F8" transform="translate(426,363)"/>
<path d="M0 0 C2.64 0 5.28 0 8 0 C8 0.99 8 1.98 8 3 C6.02 3.66 4.04 4.32 2 5 C1.5 12.43 1.5 12.43 1 20 C0.67 20 0.34 20 0 20 C0 15.38 0 10.76 0 6 C-1.98 6 -3.96 6 -6 6 C-6 11.28 -6 16.56 -6 22 C-6.33 22 -6.66 22 -7 22 C-7 16.39 -7 10.78 -7 5 C-5.02 5 -3.04 5 -1 5 C-0.67 3.35 -0.34 1.7 0 0 Z " fill="#E7E7E7" transform="translate(209,357)"/>
<path d="M0 0 C3.3 0 6.6 0 10 0 C10 2.31 10 4.62 10 7 C6.7 7 3.4 7 0 7 C0 4.69 0 2.38 0 0 Z " fill="#ECECEC" transform="translate(272,362)"/>
<path d="M0 0 C0.66 0.99 1.32 1.98 2 3 C0.69 5.17 -0.62 7.34 -1.94 9.5 C-2.31 10.12 -2.68 10.74 -3.07 11.38 C-3.43 11.97 -3.78 12.55 -4.15 13.16 C-4.76 14.09 -5.37 15.03 -6 16 C-6.33 16 -6.66 16 -7 16 C-7 11.71 -7 7.42 -7 3 C-5.68 2.34 -4.36 1.68 -3 1 C-2.01 0.67 -1.02 0.34 0 0 Z " fill="#F6F6F6" transform="translate(157,360)"/>
<path d="M0 0 C0.31 0.64 0.62 1.28 0.94 1.94 C1.29 2.62 1.64 3.3 2 4 C2.33 4.33 2.66 4.66 3 5 C3.03 5.68 3.06 6.36 3.1 7.07 C3.09 7.89 3.07 8.71 3.06 9.56 C3.05 10.39 3.04 11.22 3.04 12.07 C3.02 12.7 3.01 13.34 3 14 C2.67 14 2.34 14 2 14 C1.67 12.35 1.34 10.7 1 9 C0.01 10.98 -0.98 12.96 -2 15 C-4.97 15 -7.94 15 -11 15 C-11 11.37 -11 7.74 -11 4 C-8.03 4 -5.06 4 -2 4 C-2 3.34 -2 2.68 -2 2 C-1.34 2 -0.68 2 0 2 C0 1.34 0 0.68 0 0 Z M-10 5 C-10 7.97 -10 10.94 -10 14 C-7.36 14 -4.72 14 -2 14 C-2 11.03 -2 8.06 -2 5 C-4.64 5 -7.28 5 -10 5 Z " fill="#DCDCDC" transform="translate(583,408)"/>
<path d="M0 0 C1.02 -0.05 1.02 -0.05 2.07 -0.1 C3.3 -0.08 3.3 -0.08 4.56 -0.06 C5.39 -0.05 6.22 -0.04 7.07 -0.04 C7.7 -0.02 8.34 -0.01 9 0 C9.02 0.97 9.04 1.94 9.06 2.94 C9.04 3.95 9.02 4.96 9 6 C8.67 6.33 8.34 6.66 8 7 C6.98 7.05 6.98 7.05 5.93 7.1 C5.11 7.09 4.29 7.07 3.44 7.06 C2.61 7.05 1.78 7.04 0.93 7.04 C0.3 7.02 -0.34 7.01 -1 7 C-1.02 6.03 -1.04 5.06 -1.06 4.06 C-1.04 3.05 -1.02 2.04 -1 1 C-0.67 0.67 -0.34 0.34 0 0 Z " fill="#F2F2F2" transform="translate(182,370)"/>
<path d="M0 0 C1.48 -0.03 2.96 -0.05 4.44 -0.06 C5.26 -0.07 6.08 -0.09 6.93 -0.1 C7.62 -0.07 8.3 -0.03 9 0 C9.33 0.33 9.66 0.66 10 1 C10.04 1.82 10.08 2.65 10.12 3.5 C10.08 4.32 10.04 5.15 10 6 C9.67 6.33 9.34 6.66 9 7 C7.98 7.05 7.98 7.05 6.93 7.1 C6.11 7.09 5.29 7.07 4.44 7.06 C3.61 7.05 2.78 7.04 1.93 7.04 C1.3 7.02 0.66 7.01 0 7 C0 4.69 0 2.38 0 0 Z " fill="#EEEEEE" transform="translate(132,362)"/>
<path d="M0 0 C0.66 0 1.32 0 2 0 C2.54 0.55 3.09 1.1 3.64 1.67 C4.09 2.44 4.54 3.21 5 4 C5.02 4.85 5.05 5.7 5.07 6.58 C4.95 7.46 4.82 8.34 4.69 9.25 C4.57 10.14 4.45 11.03 4.32 11.95 C4.22 12.63 4.11 13.3 4 14 C1.69 14 -0.62 14 -3 14 C-2.34 13.67 -1.68 13.34 -1 13 C-1 11.68 -1 10.36 -1 9 C-1.99 9.5 -1.99 9.5 -3 10 C-2.88 9.24 -2.75 8.47 -2.62 7.69 C-2.42 6.8 -2.21 5.91 -2 5 C-1.34 4.01 -0.68 3.02 0 2 C0 1.34 0 0.68 0 0 Z " fill="#FEFEFE" transform="translate(117,363)"/>
<path d="M0 0 C3.96 0.33 7.92 0.66 12 1 C12 2.65 12 4.3 12 6 C7.38 6 2.76 6 -2 6 C-2 4.35 -2 2.7 -2 1 C-1.67 1.66 -1.34 2.32 -1 3 C-0.67 2.01 -0.34 1.02 0 0 Z " fill="#FBFBFB" transform="translate(287,362)"/>
<path d="M0 0 C0.9 -0.07 0.9 -0.07 1.81 -0.13 C2.53 -0.13 3.26 -0.13 4 -0.12 C4.72 -0.13 5.44 -0.13 6.19 -0.13 C6.79 -0.09 7.38 -0.05 8 0 C8.33 0.33 8.66 0.66 9 1 C9.04 1.82 9.08 2.65 9.12 3.5 C9.08 4.32 9.04 5.15 9 6 C8.67 6.33 8.34 6.66 8 7 C6.98 7.05 6.98 7.05 5.93 7.1 C5.11 7.09 4.29 7.07 3.44 7.06 C2.61 7.05 1.78 7.04 0.93 7.04 C0.3 7.02 -0.34 7.01 -1 7 C-1.02 6.03 -1.04 5.06 -1.06 4.06 C-1.04 3.05 -1.02 2.04 -1 1 C-0.67 0.67 -0.34 0.34 0 0 Z " fill="#FBFBFB" transform="translate(472,362)"/>
<path d="M0 0 C0.66 0 1.32 0 2 0 C2 5.94 2 11.88 2 18 C1.34 18 0.68 18 0 18 C0 15.03 0 12.06 0 9 C-3.63 9 -7.26 9 -11 9 C-11 11.64 -11 14.28 -11 17 C-11.33 17 -11.66 17 -12 17 C-12 11.72 -12 6.44 -12 1 C-11.67 1 -11.34 1 -11 1 C-11 3.31 -11 5.62 -11 8 C-7.37 8 -3.74 8 0 8 C0 5.36 0 2.72 0 0 Z " fill="#959595" transform="translate(419,361)"/>
<path d="M0 0 C0.66 1.32 1.32 2.64 2 4 C2.66 3.67 3.32 3.34 4 3 C4.33 5.97 4.66 8.94 5 12 C4.01 11.67 3.02 11.34 2 11 C2 11.66 2 12.32 2 13 C2.33 13.99 2.66 14.98 3 16 C2.67 16.99 2.34 17.98 2 19 C4.64 19.33 7.28 19.66 10 20 C10 20.33 10 20.66 10 21 C6.04 21 2.08 21 -2 21 C-1.01 10.61 -1.01 10.61 0 0 Z " fill="#F4F4F4" transform="translate(114,357)"/>
<path d="M0 0 C3.3 0 6.6 0 10 0 C10 1.65 10 3.3 10 5 C9.67 5.33 9.34 5.66 9 6 C7.98 6.05 7.98 6.05 6.93 6.1 C6.11 6.09 5.29 6.07 4.44 6.06 C3.61 6.05 2.78 6.04 1.93 6.04 C1.3 6.02 0.66 6.01 0 6 C0 4.02 0 2.04 0 0 Z " fill="#FAFAFA" transform="translate(273,371)"/>
<path d="M0 0 C0.66 0.66 1.32 1.32 2 2 C3.3 1.81 3.3 1.81 4.62 1.62 C5.41 1.42 6.19 1.21 7 1 C7.33 1.66 7.66 2.32 8 3 C7.54 3.86 7.08 4.72 6.6 5.6 C5.95 6.6 5.3 7.6 4.62 8.62 C3.98 9.63 3.33 10.63 2.66 11.66 C1.84 12.82 1.84 12.82 1 14 C0.67 14 0.34 14 0 14 C0 9.38 0 4.76 0 0 Z " fill="#F1F1F1" transform="translate(524,362)"/>
<path d="M0 0 C0.35 0.58 0.7 1.15 1.06 1.75 C1.37 2.49 1.68 3.24 2 4 C1.88 4.74 1.75 5.49 1.62 6.25 C1.32 7.12 1.32 7.12 1 8 C0.34 7.01 -0.32 6.02 -1 5 C-0.67 9.29 -0.34 13.58 0 18 C-0.66 18.33 -1.32 18.66 -2 19 C-2.66 19.99 -3.32 20.98 -4 22 C-4.12 18.9 -4.19 15.79 -4.25 12.69 C-4.28 11.81 -4.32 10.93 -4.35 10.02 C-4.36 9.17 -4.38 8.32 -4.39 7.45 C-4.37 6.65 -4.35 5.85 -4.33 5.03 C-4.22 4.36 -4.11 3.69 -4 3 C-3.33 2.31 -2.67 1.61 -1.98 0.89 C-1.33 0.6 -0.67 0.3 0 0 Z " fill="#DDDDDD" transform="translate(336,357)"/>
<path d="M0 0 C3.63 0 7.26 0 11 0 C10.67 1.65 10.34 3.3 10 5 C6.7 5 3.4 5 0 5 C0 3.35 0 1.7 0 0 Z " fill="#FCFCFC" transform="translate(471,372)"/>
<path d="M0 0 C0.33 0.66 0.66 1.32 1 2 C1.66 2.33 2.32 2.66 3 3 C2.34 3 1.68 3 1 3 C1 8.61 1 14.22 1 20 C-1.97 20 -4.94 20 -8 20 C-8 19.67 -8 19.34 -8 19 C-5.36 19 -2.72 19 0 19 C-0.14 17.56 -0.29 16.12 -0.44 14.69 C-0.52 13.89 -0.6 13.09 -0.68 12.26 C-0.84 11.14 -0.84 11.14 -1 10 C-1.33 9.01 -1.66 8.02 -2 7 C-2.66 7 -3.32 7 -4 7 C-4 6.34 -4 5.68 -4 5 C-3.34 5 -2.68 5 -2 5 C-2.33 4.01 -2.66 3.02 -3 2 C-2.01 1.34 -1.02 0.68 0 0 Z " fill="#E4E4E4" transform="translate(463,358)"/>
<path d="M0 0 C1.32 0.33 2.64 0.66 4 1 C3.73 1.73 3.47 2.45 3.19 3.2 C2.6 4.59 2.6 4.59 2 6 C1.51 6.81 1.03 7.62 0.53 8.46 C0 9.23 -0.52 10.01 -1.06 10.81 C-1.59 11.6 -2.12 12.39 -2.66 13.21 C-3.1 13.8 -3.54 14.39 -4 15 C-4.33 15 -4.66 15 -5 15 C-5 11.37 -5 7.74 -5 4 C-2.52 5.49 -2.52 5.49 0 7 C-0.28 5.82 -0.28 5.82 -0.56 4.62 C-0.71 3.76 -0.85 2.89 -1 2 C-0.67 1.34 -0.34 0.68 0 0 Z " fill="#F4F4F4" transform="translate(511,360)"/>
<path d="M0 0 C1.65 0.14 3.29 0.29 4.94 0.44 C6.31 0.56 6.31 0.56 7.71 0.68 C8.47 0.79 9.22 0.89 10 1 C10.33 1.33 10.66 1.66 11 2 C11.02 3.01 11.04 4.02 11.06 5.06 C11.04 6.03 11.02 7 11 8 C9.21 8.19 7.42 8.38 5.62 8.56 C4.13 8.72 4.13 8.72 2.6 8.88 C1.74 8.92 0.88 8.96 0 9 C-0.66 8.67 -1.32 8.34 -2 8 C-2 6.68 -2 5.36 -2 4 C-0.68 4 0.64 4 2 4 C2 4.99 2 5.98 2 7 C4.31 7 6.62 7 9 7 C9 6.01 9 5.02 9 4 C8.34 4 7.68 4 7 4 C7 3.34 7 2.68 7 2 C4.69 2 2.38 2 0 2 C0 1.34 0 0.68 0 0 Z " fill="#E6E6E6" transform="translate(180,361)"/>
<path d="M0 0 C0.66 0 1.32 0 2 0 C2.2 1.33 2.38 2.67 2.56 4 C2.66 4.81 2.75 5.63 2.84 6.46 C2.9 7.3 2.95 8.14 3 9 C2.95 9.79 2.9 10.57 2.84 11.38 C2.75 12.1 2.66 12.82 2.56 13.56 C2.38 14.7 2.19 15.83 2 17 C5.3 17 8.6 17 12 17 C12 17.33 12 17.66 12 18 C8.04 18 4.08 18 0 18 C0 12.06 0 6.12 0 0 Z " fill="#9B9B9B" transform="translate(244,361)"/>
<path d="M0 0 C0.66 0.33 1.32 0.66 2 1 C1.67 6.94 1.34 12.88 1 19 C1.66 19.33 2.32 19.66 3 20 C2.01 20 1.02 20 0 20 C-0.33 17.69 -0.66 15.38 -1 13 C-1.66 14.32 -2.32 15.64 -3 17 C-3.29 14.98 -3.59 12.96 -3.88 10.95 C-3.92 10.3 -3.96 9.66 -4 9 C-3.67 8.34 -3.34 7.68 -3 7 C-2.01 7 -1.02 7 0 7 C0 4.69 0 2.38 0 0 Z " fill="#EAEAEA" transform="translate(147,360)"/>
<path d="M0 0 C0.33 0 0.66 0 1 0 C0.67 4.29 0.34 8.58 0 13 C0.66 13 1.32 13 2 13 C2 10.36 2 7.72 2 5 C2.33 5 2.66 5 3 5 C3 7.97 3 10.94 3 14 C1.68 14 0.36 14 -1 14 C-1 11.03 -1 8.06 -1 5 C-3.97 5 -6.94 5 -10 5 C-10 4.67 -10 4.34 -10 4 C-8.64 3.85 -8.64 3.85 -7.25 3.69 C-6.18 3.46 -5.11 3.23 -4 3 C-3.24 2.48 -2.47 1.97 -1.69 1.44 C-1.13 0.96 -0.57 0.49 0 0 Z " fill="#EDEDED" transform="translate(596,408)"/>
<path d="M0 0 C1.49 0.99 1.49 0.99 3 2 C3 2.99 3 3.98 3 5 C7.29 5 11.58 5 16 5 C16 5.33 16 5.66 16 6 C13.36 6 10.72 6 8 6 C8 6.66 8 7.32 8 8 C7.34 8 6.68 8 6 8 C5.67 8.66 5.34 9.32 5 10 C3.67 10 2.33 10 1 10 C0.67 6.7 0.34 3.4 0 0 Z " fill="#F1F1F1" transform="translate(267,374)"/>
<path d="M0 0 C0.33 0.99 0.66 1.98 1 3 C0.96 3.67 0.92 4.35 0.88 5.04 C0.59 7.03 0.29 9.01 0 11 C-0.33 11 -0.66 11 -1 11 C-1.66 9.02 -2.32 7.04 -3 5 C-3.33 5.99 -3.66 6.98 -4 8 C-4.66 8.66 -5.32 9.32 -6 10 C-6 7.03 -6 4.06 -6 1 C-4.02 0.67 -2.04 0.34 0 0 Z " fill="#F5F5F5" transform="translate(405,361)"/>
<path d="M0 0 C0.66 0 1.32 0 2 0 C2.33 0.66 2.66 1.32 3 2 C3.61 2.14 4.22 2.27 4.85 2.41 C5.94 2.52 5.94 2.52 7.06 2.62 C8.36 2.75 9.66 2.87 11 3 C11 3.33 11 3.66 11 4 C7.37 4.33 3.74 4.66 0 5 C-0.33 9.62 -0.66 14.24 -1 19 C-1.33 19 -1.66 19 -2 19 C-2.25 16.58 -2.48 14.17 -2.69 11.75 C-2.76 11.07 -2.83 10.39 -2.91 9.68 C-2.96 9.02 -3.02 8.36 -3.07 7.67 C-3.05 6.46 -3.03 5.25 -3 4 C-2.55 3.18 -2.11 2.36 -1.64 1.52 C-1.1 1.02 -0.56 0.52 0 0 Z " fill="#E3E3E3" transform="translate(470,357)"/>
<path d="M0 0 C0.33 0 0.66 0 1 0 C1 1.65 1 3.3 1 5 C1.99 5.33 2.98 5.66 4 6 C3.01 6.5 3.01 6.5 2 7 C1.79 7.85 1.59 8.69 1.38 9.56 C1.19 10.77 1.19 10.77 1 12 C3.97 12 6.94 12 10 12 C10 12.33 10 12.66 10 13 C6.7 13 3.4 13 0 13 C0 10.69 0 8.38 0 6 C-0.99 5.67 -1.98 5.34 -3 5 C-2.88 4.36 -2.75 3.72 -2.62 3.06 C-2.42 2.38 -2.21 1.7 -2 1 C-1.34 0.67 -0.68 0.34 0 0 Z " fill="#F3F3F3" transform="translate(246,355)"/>
<path d="M0 0 C0.33 0.66 0.66 1.32 1 2 C1.33 2.99 1.66 3.98 2 5 C2.1 6.18 2.21 7.36 2.32 8.57 C2.4 9.95 2.48 11.32 2.56 12.69 C2.61 13.39 2.65 14.09 2.69 14.81 C2.8 16.54 2.9 18.27 3 20 C2.34 20.33 1.68 20.66 1 21 C1 18.03 1 15.06 1 12 C0.34 12 -0.32 12 -1 12 C-1 9.03 -1 6.06 -1 3 C-1.66 2.67 -2.32 2.34 -3 2 C-2.01 1.34 -1.02 0.68 0 0 Z " fill="#EFEFEF" transform="translate(422,358)"/>
<path d="M0 0 C1.27 -0.11 1.27 -0.11 2.57 -0.23 C4.05 -0.21 4.05 -0.21 5.56 -0.19 C6.55 -0.18 7.55 -0.17 8.57 -0.17 C9.77 -0.08 9.77 -0.08 11 0 C11.33 0.33 11.66 0.66 12 1 C12.02 2.18 12.04 3.35 12.06 4.56 C12.04 5.7 12.02 6.83 12 8 C11.67 8 11.34 8 11 8 C10.34 6.02 9.68 4.04 9 2 C6.36 2 3.72 2 1 2 C0.34 5.63 -0.32 9.26 -1 13 C-1.33 13 -1.66 13 -2 13 C-2.05 11.21 -2.09 9.42 -2.12 7.62 C-2.15 6.63 -2.17 5.63 -2.2 4.6 C-2.13 3.74 -2.07 2.88 -2 2 C-1.34 1.34 -0.68 0.68 0 0 Z " fill="#989898" transform="translate(377,361)"/>
<path d="M0 0 C4.95 0 9.9 0 15 0 C15 2 15 4 15 6 C13.35 5.67 11.7 5.34 10 5 C10 4.34 10 3.68 10 3 C6.7 2.67 3.4 2.34 0 2 C0 1.34 0 0.68 0 0 Z " fill="#EFEFEF" transform="translate(425,378)"/>
<path d="M0 0 C1.32 0.33 2.64 0.66 4 1 C4 6.94 4 12.88 4 19 C3.67 19 3.34 19 3 19 C2.67 15.7 2.34 12.4 2 9 C1.67 9 1.34 9 1 9 C0.67 6.03 0.34 3.06 0 0 Z " fill="#F2F2F2" transform="translate(438,360)"/>
<path d="M0 0 C2.97 0 5.94 0 9 0 C9 3.3 9 6.6 9 10 C6.03 10 3.06 10 0 10 C0 9.67 0 9.34 0 9 C2.64 9 5.28 9 8 9 C8 6.36 8 3.72 8 1 C6.35 1 4.7 1 3 1 C3 1.99 3 2.98 3 4 C2.01 4 1.02 4 0 4 C0 2.68 0 1.36 0 0 Z " fill="#AFAFAF" transform="translate(586,413)"/>
<path d="M0 0 C0.33 0 0.66 0 1 0 C1.03 1.46 1.05 2.92 1.06 4.38 C1.07 5.19 1.09 6 1.1 6.84 C1.07 7.55 1.03 8.26 1 9 C0.67 9.66 0.34 10.32 0 11 C-0.66 10.67 -1.32 10.34 -2 10 C-2.99 9.67 -3.98 9.34 -5 9 C-4.36 7.69 -3.71 6.37 -3.06 5.06 C-2.7 4.33 -2.34 3.6 -1.97 2.85 C-1.65 2.24 -1.33 1.63 -1 1 C-0.67 0.67 -0.34 0.34 0 0 Z " fill="#F4F4F4" transform="translate(159,365)"/>
<path d="M0 0 C0.33 0 0.66 0 1 0 C1 4.95 1 9.9 1 15 C0.67 15 0.34 15 0 15 C-0.33 12.69 -0.66 10.38 -1 8 C-2.65 8.66 -4.3 9.32 -6 10 C-5.19 8.52 -4.38 7.04 -3.56 5.56 C-2.88 4.33 -2.88 4.33 -2.19 3.07 C-1.8 2.38 -1.41 1.7 -1 1 C-0.67 0.67 -0.34 0.34 0 0 Z " fill="#ECECEC" transform="translate(534,364)"/>
<path d="M0 0 C0.33 0 0.66 0 1 0 C1.33 2.64 1.66 5.28 2 8 C1.5 8.17 1 8.35 0.48 8.53 C-0.34 8.68 -1.16 8.84 -2 9 C-3.82 8.94 -3.82 8.94 -5.67 8.88 C-7.03 8.78 -8.39 8.67 -9.75 8.56 C-10.45 8.51 -11.14 8.46 -11.86 8.4 C-13.58 8.28 -15.29 8.14 -17 8 C-17 7.67 -17 7.34 -17 7 C-8.59 6.5 -8.59 6.5 0 6 C0 4.02 0 2.04 0 0 Z " fill="#E9E9E9" transform="translate(229,372)"/>
<path d="M0 0 C1.32 0 2.64 0 4 0 C4.66 0.66 5.32 1.32 6 2 C6.33 2.99 6.66 3.98 7 5 C7 5.66 7 6.32 7 7 C6.01 7.5 6.01 7.5 5 8 C4.79 8.85 4.59 9.69 4.38 10.56 C4.19 11.77 4.19 11.77 4 13 C3.67 13 3.34 13 3 13 C2.67 9.37 2.34 5.74 2 2 C1.34 2 0.68 2 0 2 C0 1.34 0 0.68 0 0 Z " fill="#FEFEFE" transform="translate(427,363)"/>
<path d="M0 0 C0.66 0 1.32 0 2 0 C2.03 1.79 2.05 3.58 2.06 5.38 C2.07 6.37 2.09 7.37 2.1 8.4 C2.07 9.26 2.03 10.12 2 11 C1.67 11.66 1.34 12.32 1 13 C-0.32 13 -1.64 13 -3 13 C-2.67 11.68 -2.34 10.36 -2 9 C-1.34 9 -0.68 9 0 9 C0 6.03 0 3.06 0 0 Z " fill="#F8F8F8" transform="translate(421,370)"/>
<path d="M0 0 C2.64 0 5.28 0 8 0 C8.33 0.66 8.66 1.32 9 2 C8.29 3.55 8.29 3.55 7.56 5.12 C7.05 6.07 6.53 7.02 6 8 C5.67 7.34 5.34 6.68 5 6 C4.01 5.67 3.02 5.34 2 5 C2.66 4.67 3.32 4.34 4 4 C4 3.01 4 2.02 4 1 C2.68 0.67 1.36 0.34 0 0 Z " fill="#F2F2F2" transform="translate(378,362)"/>
<path d="M0 0 C2.05 -0.03 4.1 -0.07 6.15 -0.1 C7.07 -0.05 7.07 -0.05 8 0 C8.33 0.33 8.66 0.66 9 1 C9.04 1.82 9.08 2.65 9.12 3.5 C9.08 4.32 9.04 5.15 9 6 C8.67 6.33 8.34 6.66 8 7 C6.99 7.02 5.98 7.04 4.94 7.06 C3.97 7.04 3 7.02 2 7 C3.32 6.01 4.64 5.02 6 4 C4.02 3.01 2.04 2.02 0 1 C0 0.67 0 0.34 0 0 Z " fill="#F0F0F0" transform="translate(472,362)"/>
<path d="M0 0 C3.03 -0.1 3.03 -0.1 6.05 -0.2 C7.02 -0.1 7.02 -0.1 8 0 C8.66 0.66 9.32 1.32 10 2 C10.06 2.93 10.13 3.86 10.2 4.82 C10.16 6.46 10.16 6.46 10.12 8.12 C10.11 9.22 10.09 10.32 10.07 11.45 C10.05 12.29 10.02 13.13 10 14 C9.67 14 9.34 14 9 14 C9 10.7 9 7.4 9 4 C7.35 3.67 5.7 3.34 4 3 C4 2.34 4 1.68 4 1 C2.68 0.67 1.36 0.34 0 0 Z " fill="#E8E8E8" transform="translate(427,362)"/>
<path d="M0 0 C0.66 1.32 1.32 2.64 2 4 C2.66 4 3.32 4 4 4 C4 4.99 4 5.98 4 7 C8.29 7 12.58 7 17 7 C17 7.33 17 7.66 17 8 C12.38 8 7.76 8 3 8 C2.67 9.32 2.34 10.64 2 12 C2 10.02 2 8.04 2 6 C1.34 6 0.68 6 0 6 C0 4.02 0 2.04 0 0 Z " fill="#DDDDDD" transform="translate(126,372)"/>
<path d="M0 0 C0.43 0.93 0.43 0.93 0.88 1.88 C1.25 2.58 1.62 3.28 2 4 C2.66 4.66 3.32 5.32 4 6 C4 6.99 4 7.98 4 9 C3.34 9.66 2.68 10.32 2 11 C0.98 9.92 0.98 9.92 -0.06 8.81 C-0.7 7.88 -1.34 6.96 -2 6 C-1.94 5.09 -1.88 4.19 -1.81 3.25 C-1.54 2.51 -1.28 1.76 -1 1 C-0.67 0.67 -0.34 0.34 0 0 Z " fill="#F2F2F2" transform="translate(360,366)"/>
<path d="M0 0 C1.18 0.14 2.35 0.29 3.56 0.44 C5.26 0.72 5.26 0.72 7 1 C6.67 1.99 6.34 2.98 6 4 C6.99 4 7.98 4 9 4 C8.67 4.66 8.34 5.32 8 6 C6.48 6.31 6.48 6.31 4.94 6.62 C3.97 6.75 3 6.87 2 7 C1.88 6.2 1.75 5.39 1.62 4.56 C1.32 3.29 1.32 3.29 1 2 C0.34 1.67 -0.32 1.34 -1 1 C-0.67 0.67 -0.34 0.34 0 0 Z " fill="#FCFCFC" transform="translate(523,358)"/>
<path d="M0 0 C2 1 2 1 2 1 Z M-5 1 C-4.09 0.92 -3.19 0.83 -2.25 0.75 C-1.51 0.83 -0.76 0.92 0 1 C0 1.66 0 2.32 0 3 C0.66 3 1.32 3 2 3 C2 3.66 2 4.32 2 5 C-1.63 5 -5.26 5 -9 5 C-8.44 4.34 -7.89 3.68 -7.31 3 C-6.55 2.34 -5.79 1.68 -5 1 Z " fill="#E9E9E9" transform="translate(190,356)"/>
<path d="M0 0 C0.66 0 1.32 0 2 0 C2 0.66 2 1.32 2 2 C4.97 2 7.94 2 11 2 C11 1.34 11 0.68 11 0 C11.66 0 12.32 0 13 0 C12.67 1.32 12.34 2.64 12 4 C8.37 4 4.74 4 1 4 C0.67 2.68 0.34 1.36 0 0 Z " fill="#A2A2A2" transform="translate(523,354)"/>
<path d="M0 0 C0.66 0.33 1.32 0.66 2 1 C2 1.99 2 2.98 2 4 C4.64 4 7.28 4 10 4 C10 4.33 10 4.66 10 5 C8.95 5.09 8.95 5.09 7.88 5.18 C6.97 5.27 6.06 5.35 5.12 5.44 C4.22 5.52 3.32 5.6 2.38 5.68 C1.6 5.79 0.81 5.89 0 6 C-0.99 6.5 -0.99 6.5 -2 7 C-2 6.34 -2 5.68 -2 5 C-2.66 4.67 -3.32 4.34 -4 4 C-2.68 2.68 -1.36 1.36 0 0 Z " fill="#E8E8E8" transform="translate(377,356)"/>
<path d="M0 0 C1.46 -0.05 2.92 -0.09 4.38 -0.12 C5.19 -0.15 6 -0.17 6.84 -0.2 C7.91 -0.1 7.91 -0.1 9 0 C9.66 0.66 10.32 1.32 11 2 C11 3.32 11 4.64 11 6 C10.01 5.67 9.02 5.34 8 5 C7.67 4.34 7.34 3.68 7 3 C6.34 3.66 5.68 4.32 5 5 C5 3.68 5 2.36 5 1 C3.35 1 1.7 1 0 1 C0 0.67 0 0.34 0 0 Z " fill="#EBEBEB" transform="translate(132,370)"/>
<path d="M0 0 C0.33 0 0.66 0 1 0 C1.06 1.95 1.06 1.95 1.12 3.94 C1.13 4.75 1.13 5.56 1.13 6.4 C1.09 7.26 1.05 8.12 1 9 C0.85 9.86 0.71 10.72 0.55 11.6 C0.37 12.41 0.19 13.23 0 14.06 C-0.19 14.82 -0.37 15.57 -0.56 16.35 C-0.78 17.17 -0.78 17.17 -1 18 C-1.66 18 -2.32 18 -3 18 C-3.04 17.3 -3.08 16.6 -3.12 15.88 C-3.08 14.93 -3.04 13.98 -3 13 C-2.35 11 -1.68 9 -1 7 C-0.79 5.72 -0.59 4.44 -0.38 3.12 C-0.25 2.09 -0.13 1.06 0 0 Z " fill="#EEEEEE" transform="translate(111,360)"/>
<path d="M0 0 C1.02 0.22 1.02 0.22 2.06 0.44 C2.7 0.62 3.34 0.81 4 1 C4 1.99 4 2.98 4 4 C3.34 4 2.68 4 2 4 C2 6.64 2 9.28 2 12 C1.67 12 1.34 12 1 12 C1 9.03 1 6.06 1 3 C-1.97 3 -4.94 3 -8 3 C-8 2.67 -8 2.34 -8 2 C-6.87 1.86 -5.73 1.71 -4.56 1.56 C-2.8 1.28 -2.8 1.28 -1 1 C-0.67 0.67 -0.34 0.34 0 0 Z " fill="#E8E8E8" transform="translate(607,410)"/>
<path d="M0 0 C0.33 0 0.66 0 1 0 C1 3.96 1 7.92 1 12 C1.66 12.33 2.32 12.66 3 13 C2.01 14.49 2.01 14.49 1 16 C1 15.34 1 14.68 1 14 C-0.65 14 -2.3 14 -4 14 C-4 13.34 -4 12.68 -4 12 C-3.01 12 -2.02 12 -1 12 C-0.67 8.04 -0.34 4.08 0 0 Z " fill="#F7F7F7" transform="translate(164,367)"/>
<path d="M0 0 C1.02 -0.05 1.02 -0.05 2.07 -0.1 C3.3 -0.08 3.3 -0.08 4.56 -0.06 C5.39 -0.05 6.22 -0.04 7.07 -0.04 C7.7 -0.02 8.34 -0.01 9 0 C9 0.33 9 0.66 9 1 C7.3 1.22 7.3 1.22 5.56 1.44 C3.8 1.72 3.8 1.72 2 2 C1.67 2.33 1.34 2.66 1 3 C0.9 3.97 0.79 4.94 0.68 5.94 C0.6 7.14 0.52 8.33 0.44 9.56 C0.35 10.76 0.27 11.96 0.18 13.19 C0.12 14.12 0.06 15.05 0 16 C-0.33 16 -0.66 16 -1 16 C-1.03 13.52 -1.05 11.04 -1.06 8.56 C-1.08 7.5 -1.08 7.5 -1.09 6.42 C-1.09 5.75 -1.09 5.07 -1.1 4.38 C-1.07 3.26 -1.03 2.15 -1 1 C-0.67 0.67 -0.34 0.34 0 0 Z " fill="#8A8A8A" transform="translate(211,361)"/>
<path d="M0 0 C0.66 0 1.32 0 2 0 C1.67 2.97 1.34 5.94 1 9 C0.01 9 -0.98 9 -2 9 C-2.23 8.07 -2.45 7.14 -2.69 6.19 C-2.79 5.14 -2.89 4.08 -3 3 C-2.57 2.38 -2.13 1.76 -1.69 1.12 C-1.13 0.75 -0.57 0.38 0 0 Z " fill="#F8F8F8" transform="translate(146,358)"/>
<path d="M0 0 C0.66 0.66 1.32 1.32 2 2 C2.99 2 3.98 2 5 2 C6.73 2.15 8.46 2.32 10.19 2.5 C11.09 2.59 11.99 2.69 12.92 2.78 C13.61 2.85 14.29 2.93 15 3 C15 3.33 15 3.66 15 4 C13.84 4.06 13.84 4.06 12.66 4.11 C11.16 4.21 11.16 4.21 9.62 4.31 C8.63 4.37 7.63 4.43 6.6 4.49 C5.74 4.66 4.88 4.83 4 5 C3.01 6.49 3.01 6.49 2 8 C1.67 7.24 1.34 6.47 1 5.69 C0.67 4.8 0.34 3.91 0 3 C0 2.01 0 1.02 0 0 Z " fill="#EAEAEA" transform="translate(372,376)"/>
<path d="M0 0 C0.33 0.99 0.66 1.98 1 3 C0.67 3.99 0.34 4.98 0 6 C2.64 6.33 5.28 6.66 8 7 C8 7.33 8 7.66 8 8 C4.04 8 0.08 8 -4 8 C-3.34 6.35 -2.68 4.7 -2 3 C-1.34 2.01 -0.68 1.02 0 0 Z " fill="#E0E0E0" transform="translate(116,370)"/>
<path d="M0 0 C1.98 -0.03 3.96 -0.05 5.94 -0.06 C7.04 -0.07 8.14 -0.09 9.28 -0.1 C10.18 -0.07 11.07 -0.03 12 0 C12.33 0.33 12.66 0.66 13 1 C13.02 2.18 13.04 3.35 13.06 4.56 C13.04 5.7 13.02 6.83 13 8 C12.34 7.34 11.68 6.68 11 6 C10.67 4.68 10.34 3.36 10 2 C6.7 2 3.4 2 0 2 C0 1.34 0 0.68 0 0 Z " fill="#959595" transform="translate(131,361)"/>
</svg>
